<svg width="1344" height="1047" fill="none" xmlns="http://www.w3.org/2000/svg"><path d="M949.8 162.4c.2 3.1.3 6.2.5 9.2 0 .6.4 1.4 1.1 1.4 84.2 11.6 169.1 1.8 253.6 2 23.9 0 47.7.9 71.5 3.2.6.1 1.3-.5 1.4-1.1.8-4.1 1.7-8.2 2.5-12.3.4-1.9-2.5-2.7-2.9-.8-.8 4.1-1.7 8.2-2.5 12.3.5-.4 1-.7 1.4-1.1-83.7-8.2-167.7 2.1-251.6.3-24.3-.5-48.6-2.1-72.7-5.4.4.5.7 1 1.1 1.4-.2-3.1-.3-6.2-.5-9.2 0-1.8-3-1.8-2.9.1Z" fill="#E8E8E8"/><path d="M952.3 163.9h325.9c1.9 0 1.9-3 0-3H952.3c-1.9 0-1.9 3 0 3Z" fill="#E8E8E8"/><path d="M970.5 161.5c2.5-35.9 4.6-71.9 7.7-107.7.4-4.7.9-9.3 1.7-13.9.3-1.7.4-5.2 1.4-6.6 1.3-1.8 4.1-1.8 6.1-2.1 4.6-.8 12.3-3.6 15.5 1.1.9 1.4 1.1 4.3 1.4 6 .6 3 1 6 1.3 9 1.6 17.6-.7 35.5-2 53.1l-4.5 61.2c-.1 1.9 2.9 1.9 3 0 2.2-29.2 4.6-58.3 6.4-87.5.8-13.4 1.2-27.1-2.1-40.3-.9-3.7-2.3-6.8-6.5-7.2-6.4-.5-13.8 1.7-20 3-.5.1-.9.6-1 1-5.3 20.7-5.1 43-6.6 64.2-1.6 22.2-3.1 44.5-4.7 66.7-.2 1.9 2.8 1.9 2.9 0Z" fill="#E8E8E8"/><path d="M1007.7 71.2c12.2 30.7 25.1 61.1 38.6 91.2.8 1.8 3.4.2 2.6-1.5-13.4-29.9-26.2-60.1-38.3-90.5-.7-1.8-3.6-1-2.9.8ZM1010.3 55.1c2.5-7.1 10.2-11 17.4-9 1.9.5 2.7-2.4.8-2.9-8.8-2.5-18.1 2.5-21.1 11.1-.6 1.9 2.3 2.6 2.9.8Z" fill="#E8E8E8"/><path d="M1027.7 46.7c19.8 38.4 39.5 76.9 59.3 115.3.9 1.7 3.5.2 2.6-1.5-19.8-38.4-39.5-76.9-59.3-115.3-.9-1.8-3.5-.3-2.6 1.5Z" fill="#E8E8E8"/><path d="M1079.8 20.9c3.2 46.5 6.4 93 9.5 139.5.1 1.9 3.1 1.9 3 0-3.2-46.5-6.4-93-9.5-139.5-.1-1.9-3.1-1.9-3 0Z" fill="#E8E8E8"/><path d="M1082.4 22.5c5.1-4.6 12-4.6 18.4-3.5 2.6.4 5.4.9 7.9 1.8 4.6 1.7 3.9 5.9 4.1 10 .6 14.3 1.1 28.6 1.7 42.9 1.1 28.9 2.3 57.9 3.4 86.8.1 1.9 3.1 1.9 3 0-1.4-34.6-2.7-69.2-4.1-103.7-.3-8.6-.7-17.3-1-25.9-.2-4.4.4-9.8-4.2-12.2-4.8-2.5-12.2-3.4-17.6-3.3-5.2.1-9.8 1.5-13.6 5-1.5 1.2.6 3.4 2 2.1ZM1030.1 45c9.5.6 18.8 3.4 27.9 6 8.4 2.4 16.6 5.4 23.7 10.6 1.6 1.1 3.1-1.5 1.5-2.6-7.4-5.3-15.8-8.4-24.5-10.9-9.4-2.7-18.9-5.4-28.7-6.1-1.9-.2-1.9 2.8.1 3Z" fill="#E8E8E8"/><path d="M1116.3 39.7c4.4-1.1 9.3-2.2 13.9-1.3 6.8 1.4 8.2 7.4 8.5 13.5.5 12.3.7 24.5 1 36.8.6 24.2.9 48.4 1 72.6 0 1.9 3 1.9 3 0-.1-28.9-.5-57.7-1.3-86.5l-.6-20.9c-.2-4.6-.1-9.7-2.9-13.6-5.2-7.3-15.9-5.5-23.3-3.6-2 .6-1.2 3.5.7 3Z" fill="#E8E8E8"/><path d="M1138.2 23.9v26.9c0 1.9 3 1.9 3 0V23.9c0-1.9-3-1.9-3 0Z" fill="#E8E8E8"/><path d="M1142.6 25c.8.3 1.7.6 2.5.9.1.7.2 1.4.3 2.2.2 1.6.2 3.3.4 5 .2 2.6.4 5.3.6 7.9.4 5.6.7 11.3 1 16.9.7 11.6 1.2 23.2 1.6 34.8.9 22.9 1.2 45.8 1.2 68.7 0 1.9 3 1.9 3 0 0-28.5-.6-57.1-1.9-85.6-.7-13.9-1.5-27.8-2.5-41.7-.2-3.4.4-9.6-2.7-12-2.1-1.6-5-1-6.1 1.4-.7 1.8 1.8 3.3 2.6 1.5ZM995.2 177.1c3.1 5.2 6.1 13 11.1 16.7 4.9 3.7 10.9.4 16.3 2.3 1.8.6 2.6-2.3.8-2.9-4.8-1.7-10.4 1-14.7-1.7-4.9-3-8-11.1-10.9-16-1-1.6-3.6-.1-2.6 1.6Z" fill="#E8E8E8"/><path d="M1026.6 178.4c-.4 5.2-2 9.9-4.6 14.3-1 1.7 1.6 3.2 2.6 1.5 3-4.9 4.6-10.2 5-15.8.2-1.9-2.8-1.9-3 0Z" fill="#E8E8E8"/><path d="M1018.1 180.9c.9 4.6 1.8 9.2 2.8 13.8.4 1.9 3.3 1.1 2.9-.8-.9-4.6-1.8-9.2-2.8-13.8-.4-1.9-3.3-1.1-2.9.8Z" fill="#E8E8E8"/><path d="M1021.7 180.8c.2 0 .4.1.6.2.3.6.3 1.2.2 1.8-.1.7-.4 1.4-.6 2.1-.4 1.4-.5 2.7-.1 4.1.6 1.9 3.2 1.1 2.9-.8-.5-2.7-.1-5.4 1-7.9-1-.1-2-.3-2.9-.4-.3 3.1-.5 6.3-.8 9.4-.2 1.9 2.8 1.9 3 0 .3-3.1.5-6.3.8-9.4.2-1.8-2.4-1.8-2.9-.4-1.3 3.1-1.5 6.3-1 9.5 1-.3 1.9-.5 2.9-.8-.9-3 2.6-6.7-.4-9.4-1.8-1.6-4.7-1-5.4 1.3-.8 1.8 2.1 2.6 2.7.7ZM1178.4 158.9c-.9-3.7-1.3-7.3-1-11.1l-1.5 1.5c17.7-.9 35.4-2 53.1-2.4 8.9-.2 17.8-.2 26.7 0 2 0 4 .1 5.9.1 2 .1 6.1-.6 7.9.3 4 1.9 2.3 9.6 2.3 13.1 0 1.9 3 1.9 3 0 0-4.7 2.4-14.7-4-16-4.4-.9-9.6-.4-14.1-.5-5.6-.1-11.2-.2-16.8-.1-21.3.1-42.6 1.4-64 2.5-.8 0-1.5.7-1.5 1.5-.2 4.1.1 8 1.2 11.9.3 1.9 3.2 1.1 2.8-.8Z" fill="#E8E8E8"/><path d="M1189.5 128.8c1.2 5.5 2.1 11 2.5 16.6.1 1.9 3.1 1.9 3 0-.4-5.9-1.3-11.7-2.6-17.4-.4-1.8-3.3-1-2.9.8Z" fill="#E8E8E8"/><path d="M1191.5 130.7c12.1-1 24.2-2.1 36.3-1.6 11.4.5 22.9 4.2 34.3 3l-1.5-1.5c-.4 5.3.2 10.3 1.9 15.4.6 1.8 3.5 1 2.9-.8-1.6-4.8-2.2-9.5-1.8-14.6.1-.8-.7-1.6-1.5-1.5-11.4 1.1-22.9-2.6-34.3-3-12.1-.5-24.3.6-36.3 1.6-1.9.1-1.9 3.1 0 3ZM1089.7 441v12.5c0 1.9 3 1.9 3 0V441c0-1.9-3-1.9-3 0Z" fill="#E8E8E8"/><path d="M1091.2 440h233.4c1.9 0 1.9-3 0-3h-233.4c-2 0-2 3 0 3ZM1093.6 453.8h229.7c1.9 0 1.9-3 0-3h-229.7c-1.9 0-1.9 3 0 3Z" fill="#E8E8E8"/><path d="M1323.1 441v8.7c0 1.9 3 1.9 3 0V441c0-1.9-3-1.9-3 0ZM1112.8 407.3c2.6 10.3 5 20.7 7 31.1.4 1.9 3.3 1.1 2.9-.8-2-10.4-4.3-20.8-7-31.1-.5-1.9-3.4-1.1-2.9.8ZM1164.8 406.4c-2.4 10.3-4.4 20.6-5.9 31-.3 1.9 2.6 2.7 2.9.8 1.5-10.4 3.5-20.8 5.9-31 .4-1.9-2.5-2.7-2.9-.8Z" fill="#E8E8E8"/><path d="M1104.6 401.7c.2 5.2 8 4.8 11.8 5 8.6.4 17.3-.9 25.9-1.4 4.3-.3 8.6-.4 12.9 0 3.5.3 7.3 1.5 10.7.8 3.8-.8 6.2-4.4 4-7.9-1-1.6-3.6-.1-2.6 1.5 2.8 4.7-6.7 3.2-7.6 3.1-2.1-.3-4.3-.5-6.4-.6-4.9-.3-9.9 0-14.8.4-3.2.2-30.8 3.5-30.9-.9 0-2-3-2-3 0Z" fill="#E8E8E8"/><path d="M1108.1 401.3c-1.8-5.6 13.7-5 16.3-5.1 4.6-.2 9.3-.4 13.9-.6 2.5-.1 28.5-.8 27.8 1.1-.6 1.8 2.3 2.6 2.9.8 3-8.9-29.5-5-33.7-4.8-7.8.3-16.5-.4-24.1 1.1-4 .8-7.4 3.8-6 8.2.6 1.9 3.5 1.1 2.9-.7Z" fill="#E8E8E8"/><path d="M1121.4 393c-4.6-2.1-8.7-5.1-11.9-8.9-1.3-1.6-10.5-14.9-5.1-15.7.9-.1 1.4-1.5.9-2.2-2.9-4.2-4.1-9.6-5.6-14.4-1.7-5.2-3.3-10.4-5-15.5-.3-1.1-.8-2.1-1-3.2-.5-2.1-.8-2.1 1.7-2.3 2.7-.2 4.1 1.9 5.9 3.7 3.4 3.4 6.4 7.1 9.1 11 10.1 14.6 15.7 31.8 19.9 48.9.5 1.9 3.4 1.1 2.9-.8-5.4-21.8-13.3-44.2-29.3-60.7-2.2-2.3-6.4-7.6-10.1-7-2.8.5-3.6 3.5-3.4 6 .4 5.6 3.4 11.7 5.2 17.1 2 6.2 3.3 13.4 7.1 18.8.3-.7.6-1.5.9-2.2-6.6 1-2.8 10.2-1 13.8 3.8 7.3 9.9 12.9 17.3 16.4 1.7.6 3.2-2 1.5-2.8Z" fill="#E8E8E8"/><path d="M1124.8 365.6c-.3-12.7-.6-25.9 3.7-38 2.1-5.9 5.3-11.2 9-16.2.9-1.3 1.9-3.4 3.3-4.2 1-1.6 2.5-1.8 4.4-.5 2.4-.6 3.6 0 3.6 1.8 1.2 2.7.8 7.3.8 10.1 0 6.7-1.6 12.9-3.2 19.3-.6 2.2-1.1 4.5-.9 6.7.2 2.6 1.6 4.6 2.3 7 2 6.8-1.5 13.8-3.9 20-2.4 6.5-4.9 13-7.3 19.6-.7 1.8 2.2 2.6 2.9.8 3.2-8.6 6.6-17.1 9.6-25.8 2.1-6.1 3.1-11.4.7-17.4-3.2-8.1 1.9-17.2 2.6-25.5.4-5.4 1.3-14.6-2.2-19.4-7.6-10.5-19.7 11.9-22.1 16.9-6.8 14-6.7 29.7-6.3 44.9.1 1.9 3.1 1.9 3-.1ZM1099.6 341c9.9 13.9 15.8 30.6 22.7 46.1.8 1.8 3.4.2 2.6-1.5-6.8-15.6-12.8-32.2-22.7-46.1-1.1-1.6-3.7-.1-2.6 1.5Z" fill="#E8E8E8"/><path d="M1127.2 333.9c.4 5.3 2.2 10 5.5 14.1 1.2 1.5 3.3-.6 2.1-2.1-2.7-3.5-4.3-7.6-4.6-12-.1-1.9-3.1-1.9-3 0ZM1140.8 333.2c2.4-3.6 4.9-7.2 7.3-10.8 1.1-1.6-1.5-3.1-2.6-1.5-2.4 3.6-4.9 7.2-7.3 10.8-1 1.6 1.6 3.1 2.6 1.5ZM1170.6 331.2c-2.5 4-6.1 7.1-9.4 10.3-3.6 3.4-7.2 6.9-10.8 10.3-1.4 1.3.7 3.5 2.1 2.1 6.9-6.6 15.6-13 20.7-21.2 1-1.6-1.6-3.1-2.6-1.5Z" fill="#E8E8E8"/><path d="M1169.3 335.2c.2 5.3 9 15.1 2.2 18.3-.9.5-.9 1.7-.3 2.4 2.3 2.8.8 7 .5 10.3-.3 3.7 0 7.4-1 11-1.8 6.9-8.2 11-13.9 14.6-1.6 1-.1 3.6 1.5 2.6 6.9-4.4 14-9.4 15.6-18 .8-4.6.8-9.4 1.2-14 .4-3.3.3-5.9-1.9-8.5l-.3 2.4c9.5-4.5-.5-14.7-.7-20.9 0-2.1-3-2.1-2.9-.2Z" fill="#E8E8E8"/><path d="M1164.5 349.9c-6.9 11.1-12.8 22.7-17.7 34.9-.7 1.8 2.2 2.6 2.9.8 4.8-11.9 10.6-23.3 17.4-34.2 1-1.7-1.6-3.2-2.6-1.5ZM1118.1 427.8c4 5.4 9.5 9.1 16.1 10.5 1.9.4 2.7-2.5.8-2.9-5.8-1.2-10.8-4.3-14.3-9.1-1.1-1.5-3.7 0-2.6 1.5ZM1116.4 415.5c10.3 7.9 21.2 19.2 34.4 21.9 1.9.4 2.7-2.5.8-2.9-12.8-2.6-23.6-13.9-33.7-21.6-1.5-1.2-3 1.4-1.5 2.6ZM1124.3 407.9c6.2 5.1 12.2 10.3 18.5 15.2 2.7 2.1 5.5 4.1 8.8 5.4 3.1 1.3 6.4 1.9 9.2 3.9 1.6 1.1 3.1-1.5 1.5-2.6-2.2-1.5-4.4-2.2-6.8-3.1-4.1-1.4-7.4-3.3-10.8-6-6.2-4.8-12.2-9.9-18.2-14.9-1.6-1.2-3.7.9-2.2 2.1ZM1140.7 406.5c5.8 6 12.8 10.4 20.8 13 1.8.6 2.6-2.3.8-2.9-7.5-2.5-14-6.6-19.5-12.3-1.3-1.3-3.5.8-2.1 2.2ZM1214.3 435.6c-.6-1.6-1.5-3.7-1.4-5.4.4-4.4 3.4-4.8 6.3-5.3 4.2-.8 8.6-.9 12.9-.9 7.3-.1 14.7.5 22 .8 7.3.2 14.5-.2 21.8-.8 3-.3 8.3-1.5 11.2-.5 3 1.1 3.8 2.6 3.9 5.4.1 2.2.1 4.4.2 6.7.1 1.9 3.1 1.9 3 0-.1-3.4.9-9.4-.8-12.6-1.6-2.8-5.3-2.5-8.1-2.5-11.4 0-22.5 1.7-34 1.2-10.6-.4-21.3-1.3-31.8.3-8.6 1.3-10.8 6.6-7.9 14.6.4 1.6 3.3.8 2.7-1Z" fill="#E8E8E8"/><path d="M1235.5 419.5c.8-1.8 1.5-3.6 2.3-5.4.9-.1 1.8-.2 2.7-.4 1.2-.1 2.3 0 3.5-.1 2.6 0 5.1-.1 7.7-.1 5.5-.1 10.9-.1 16.4-.2 5.1-.1 10.3-.1 15.4-.2 1.3 0 2.6 0 3.9-.1 1.6 0 2.1-.4 2.6.8.6 1.5-.5 5.7-.7 7.3-.2 1.9 2.8 1.9 3 0 .2-2.4 1.7-7.4.5-9.6-1-1.8-2.5-1.5-4.5-1.5-9.6 0-19.3.3-28.9.4-4.5.1-9 .1-13.5.2-3.4 0-7.6-.4-10.7 1.2-3.6 1.9-5.3 6.8-1.8 9.7 1.5 1.3 3.6-.8 2.1-2Z" fill="#E8E8E8"/><path d="M1256.1 407.3c-2.6-3.5 8.3-3.1 9-3.2 2.4-.2 10.6-1.7 9 3.7-.6 1.9 2.3 2.6 2.9.8.7-2.4-.1-4.6-2-6.2-3.3-2.7-7.4-1.4-11.3-1.2-3.1.1-6.8-.9-9.3 1.5-1.8 1.6-2.3 4.1-.9 6.1 1.2 1.5 3.8 0 2.6-1.5ZM1103.1 456c3.8 5.2 8.3 9.5 13.6 13.1 1.6 1.1 3.1-1.5 1.5-2.6-4.8-3.3-9.1-7.3-12.5-12.1-1.2-1.5-3.8 0-2.6 1.6Z" fill="#E8E8E8"/><path d="M1116.3 468.1h9.9c1.9 0 5 .5 6.7-.4 1.3-.7 1.7-2.3 2.3-3.5 1.6-3.2 3.5-6.2 5.7-9.1 1.2-1.5-.9-3.6-2.1-2.1-1.1 1.3-2.1 2.7-3.1 4.1-1.2 1.9-2 4.6-3.4 6.3-2.8 3.3-11.9 1.8-16 1.7-1.9 0-1.9 3 0 3Z" fill="#E8E8E8"/><path d="M1127.4 455.8c.8 3 1.6 6.1 2.5 9.1.5 1.9 3.4 1.1 2.9-.8-.8-3-1.6-6.1-2.5-9.1-.5-1.9-3.4-1.1-2.9.8ZM1249.3 455.3c1.6 3.3 3.3 6.5 5.4 9.5 1.1 1.6 2.5 4.1 4.4 5 2 1 4.8.2 6.8 0 3.6-.4 7.2-.7 10.8-1.1 1.9-.2 1.9-3.2 0-3-2.4.2-4.8.5-7.2.7-2.1.2-5.2 1.1-7.2.7-5.2-1-8.4-9.2-10.4-13.4-.9-1.7-3.5-.2-2.6 1.6Z" fill="#E8E8E8"/><path d="M1276.8 452.8c-1.2 4.3-1.8 8.7-1.7 13.1.1 1.9 3.1 1.9 3 0-.1-4.2.4-8.3 1.5-12.3.6-1.8-2.3-2.6-2.8-.8Z" fill="#E8E8E8"/><path d="M1278.1 467.4c4-3.8 7.8-7.8 11.5-11.9 1.3-1.4-.8-3.6-2.1-2.1-3.7 4.1-7.5 8.1-11.5 11.9-1.4 1.3.7 3.4 2.1 2.1ZM635.9 162.4v84.5c0 1.9 3 1.9 3 0v-84.5c0-1.9-3-1.9-3 0Z" fill="#E8E8E8"/><path d="M638.3 249.2h107.2c1.9 0 1.9-3 0-3H638.3c-2 0-2 3 0 3ZM638.3 163.9h104c1.9 0 1.9-3 0-3h-104c-2 0-2 3 0 3Z" fill="#E8E8E8"/><path d="M742.3 162.4v84.5c0 1.9 3 1.9 3 0v-84.5c0-1.9-3-1.9-3 0ZM691.7 159.9c-.1-1.3.1-2.5.7-3.7.3-.7 1.5-2.5 2.2-2 .8.5 1.1 2.8 1.2 3.6.3 1.5.3 3 .1 4.5-.2 1.9 2.8 1.9 3 0 .2-2.6 0-5.2-.9-7.7-.6-1.6-1.4-3.5-3.3-3.7-4.1-.5-6.2 5.8-6 8.9.1 2.1 3.1 2.1 3 .1ZM641.6 172.1v67.4c0 1.9 3 1.9 3 0v-67.4c0-1.9-3-1.9-3 0Z" fill="#E8E8E8"/><path d="M643.1 241h94.2c1.9 0 1.9-3 0-3h-94.2c-1.9 0-1.9 3 0 3Z" fill="#E8E8E8"/><path d="M739.7 238.7v-67.4c0-1.9-3-1.9-3 0v67.4c0 2 3 2 3 0Z" fill="#E8E8E8"/><path d="M643.9 174.4h91c1.9 0 1.9-3 0-3h-91c-1.9 0-1.9 3 0 3ZM644.4 225.1c11.7-3.5 23.6-6.6 35.2-1.2 8.3 3.9 15.5 9.8 24.8 11.5 1.9.3 2.7-2.5.8-2.9-10.6-2-18.6-9.7-28.7-13.1-10.9-3.6-22.3-.4-32.9 2.8-1.8.6-1 3.5.8 2.9Z" fill="#E8E8E8"/><path d="M683.4 223.4c14.3-5 29.2-6.8 44.2-5.3 1.9.2 1.9-2.8 0-3-15.3-1.5-30.5.3-45 5.4-1.8.7-1 3.6.8 2.9ZM686.5 200.2c-1.1-1.9-.8-4.7 1.1-6 1.7-1.2 4.4-.7 5.6.9 1.2 1.7.5 4.4-1.4 5.4-2.2 1.1-4.7-1-4.7-3.2 0-1.9-3-1.9-3 0-.1 4 4 7.4 8 6.3 3.7-1 5.7-5.7 4.1-9.1-1.6-3.6-6.4-4.9-9.8-3.1-3.7 2-4.6 6.9-2.6 10.4 1.1 1.6 3.6.1 2.7-1.6ZM1173.6 176.9c3.6 4.8 4.3 11.3 8.7 15.5 4.1 4 9 3.4 14 1.6 1.8-.6 1-3.5-.8-2.9-2.7.9-5.8 1.9-8.6.8-2.4-1-4-3.2-5.2-5.5-1.9-3.7-3-7.7-5.5-11.1-1.2-1.5-3.8 0-2.6 1.6Z" fill="#E8E8E8"/><path d="M1195.9 192.8c4.8-4.1 9-8.8 12.6-14 1.1-1.6-1.5-3.1-2.6-1.5-3.4 5-7.5 9.5-12.1 13.4-1.5 1.2.6 3.4 2.1 2.1ZM1188.6 175.8c1.4 3.3 2 6.7 1.9 10.2-.1 1.9 2.9 1.9 3 0 .1-4.1-.7-8-2.3-11.7-.7-1.8-3.3-.3-2.6 1.5ZM1108.5 567v40c0 1.9 3 1.9 3 0v-40c0-1.9-3-1.9-3 0ZM1072 612.5h106c1.9 0 1.9-3 0-3h-106c-1.9 0-1.9 3 0 3ZM1129.5 615v25c0 1.9 3 1.9 3 0v-25c0-1.9-3-1.9-3 0Z" fill="#E8E8E8"/><path d="M1071 644.5h94c1.9 0 1.9-3 0-3h-94c-1.9 0-1.9 3 0 3ZM1094.5 647v19c0 1.9 3 1.9 3 0v-19c0-1.9-3-1.9-3 0ZM1104.5 162.8c0-4.2-.8-9.5 0-13.6 1.1-5.8 9.2-4.7 13.9-5 1.9-.1 1.9-3.1 0-3-3.8.2-7.8.2-11.6.8-1.7.3-3.2.8-4.2 2.3-1.2 1.8-1 4.3-1 6.4v12.1c-.1 2 2.9 2 2.9 0ZM1086.9 51.1c9.1-2.5 18.2-1.9 26.9 1.6 1.8.7 2.6-2.2.8-2.9-9.2-3.7-18.9-4.2-28.5-1.6-1.9.6-1.1 3.5.8 2.9ZM1083.2 42.1c8-5.5 17.6-6.5 26.6-2.9 1.8.7 2.6-2.2.8-2.9-9.6-3.9-20.4-2.7-28.9 3.2-1.6 1.1-.1 3.7 1.5 2.6ZM1050.7 94.5c-3.2 2.2-9.3 5.1-10.2 9.3-.4 2.2.6 4.2 1.4 6.2 1.4 3.5 2.8 7 4.3 10.5 5.8 13.7 12.3 27.1 19.5 40.1.9 1.7 3.5.2 2.6-1.5-5.5-10-10.6-20.2-15.3-30.6-2.5-5.5-4.9-11.1-7.1-16.7-1.3-3.3-3.1-6.2-.7-9.6 1.4-2 5-3.7 7.1-5.1 1.5-1.1 0-3.7-1.6-2.6Z" fill="#E8E8E8"/><path d="M630.2 584.6c-8.2 6.1-18.1 15.9-21.7 29.9-2.6 10.4-.1 16.5-1 29.9-.6 9.3-3 22.4-10.7 38-17.5-3.6-46.9-7.1-81.6.9-20.7 4.8-37.3 12.3-49.5 19.1 1.9 1.2 4.5 2.6 7.8 3.5 18.7 5.1 38.4-10.6 39-9.5.6 1-22 11.6-20.8 20.8.8 6.2 11.9 9.5 23.4 13 9.7 2.9 18.9 5.7 31.2 4.3 16.9-1.9 28.6-10.4 33.8-14.8 5 2.5 12.4 5.8 21.7 8.7 17.1 5.2 40.7 12.4 56.4 2.6 10.2-6.4 13.3-21.4 19.1-51.2 7-36.3 10.3-54.5.9-69.4-12.3-19.9-37.6-24.5-48-25.8Z" fill="#fff" stroke="#161616" stroke-width="3" stroke-miterlimit="10"/><path d="M593.6 683.5c12.1 4.5 22.1 12.7 29 23.6 1 1.6 3.6.1 2.6-1.5-7.3-11.6-18-20.2-30.8-25-1.9-.7-2.6 2.2-.8 2.9ZM529.2 703.2c-11.9 2-21.5 10-25.8 21.2-.7 1.8 2.2 2.6 2.9.8 3.9-10.2 12.9-17.3 23.7-19.1 1.9-.3 1.1-3.2-.8-2.9ZM543.2 713.2c-4.3 2.6-8.3 5.6-12.1 8.8-2.5 2.2-5.3 4.8-4.7 8.4 1.5 9.5 12.9 7.4 19.1 5 1.8-.7 1-3.6-.8-2.9-2.7 1-5.7 2.3-8.6 2.2-4.7-.2-8.9-4.7-4.9-8.8 3.8-4 8.8-7.2 13.5-10.2 1.6-1 .1-3.6-1.5-2.5Z" fill="#161616"/><path d="M723.5 461.5c-5.1 1.7-11.6 4.3-18.9 7.9-2.1 1-7.4 3.7-13.1 7.4-8.8 5.6-15.2 11.5-22.5 18.9-9.3 9.5-18.7 19-29.9 34.2-9.4 12.8-24 32.9-34.5 62.4-4.2 11.7-6.6 21.8-8 29 5.5-3.2 10.5-4.8 14.4-5.7 22.5-5.1 44.1 6.3 64.6 17 7.7 4 13.8 7.9 18 10.6 2.2-10.8 4.4-21.7 6.6-32.5 1.9-9.1 3.7-18.3 5.6-27.4 2.9-2.5 6.8-6.2 11.1-11 8.1-9.2 24.2-27.5 26.4-52.9 2.7-29.3-14.7-51.7-19.8-57.9Z" fill="#B219CD"/><path d="M717.6 462.7c-10.7 1.6-19.9 7.3-28.2 13.9-9.6 7.5-18.6 15.8-27 24.6-16.4 17-30.7 36-42.5 56.5-1 1.7 1.6 3.2 2.6 1.5 11.4-19.8 25-38.2 40.8-54.7 7.7-8 15.8-15.6 24.3-22.7 9.1-7.5 18.8-14.5 30.8-16.3 1.9-.2 1.1-3.1-.8-2.8ZM713.4 571.9c-7.4 7.5-15 14.8-22.7 21.9-1.4 1.3.7 3.4 2.1 2.1 7.7-7.1 15.3-14.4 22.7-21.9 1.3-1.4-.8-3.5-2.1-2.1Z" fill="#161616"/><path d="M703 585.6c-3.5 19.2-6.9 38.5-10.4 57.7.7-.3 1.5-.6 2.2-.9-15.9-11.1-33.6-19.4-52.4-24.6-14.7-4-33.4-7.9-46 3.2-1.4 1.3.7 3.4 2.1 2.1 12.8-11.4 33.5-5.4 48-1 16.7 5.1 32.4 12.9 46.7 22.8.8.5 2 0 2.2-.9 3.5-19.2 6.9-38.5 10.4-57.7.4-1.8-2.5-2.6-2.8-.7Z" fill="#161616"/><path d="M620.6 556.3c-10.4 20.3-23.4 41.2-24.3 64.7-.1 1.9 2.9 1.9 3 0 .9-22.9 13.7-43.3 23.9-63.2.8-1.7-1.8-3.2-2.6-1.5Z" fill="#161616"/><path opacity=".4" d="M709.5 518.5c-17.9 35.6-27.6 65.6-33.3 86.6-8.3 30.8-11.2 55.1-32.7 75.3-3.5 3.3-13.8 12.8-30 18.7-34 12.3-59.2-4.3-80.6 13.3-2.4 2-9.5 7-8.7 12.7.8 5.4 8.2 8.2 9.3 8.7 8.8 3.4 17.9-.1 29.3-4.7 12.9-5.2 11.5-7 17.3-8 12.2-2.1 17.8 5.6 34 10.7 6.9 2.1 27.3 8.5 42 0 10.8-6.3 14.1-18.1 19.3-38 3.6-13.5 7.3-33.2 6.7-58l12 9.3c5.2-42.2 10.3-84.4 15.4-126.6Z" fill="#3D3D3D"/><path opacity=".38" d="M703.5 561.8c-13.7 25.9-20.4 47.8-24 62.6-7.2 29.7-4.9 43.7-14.7 64.6-10.5 22.7-27.5 37.1-39.3 45.3 6.6 1.5 22.5 4.3 34-4.7 8.1-6.3 10.2-15.3 13.3-30 3.9-18.1 8-38.7 12-61.3l9.3 6c3.2-27.4 6.3-55 9.4-82.5Z" fill="#3D3D3D"/><path d="M721.4 459.5c-3.6 23.5-7.1 47.2-10.5 71-13.2 92.3-24.6 183-34.2 272.2.2 3 1 7.8 4 12.6 3 4.9 7 7.4 8.9 8.7 18.2 13 27.3 19.6 36.5 24 44.1 21.3 92.9 18.8 92.9 18.8 10.3-.5 30.8-1.8 52.8-10.6 1.2-.5 9.6-4.4 26.4-12.3 15.2-7.1 17.9-8.5 21.6-11.9 8.8-8.1 12.2-18.1 14.5-25.2 4.9-15.1 4.4-27.9 4.2-31 0 0-1-24.9-1.7-170.3-.1-29.6 2.8-73.1 18.4-126.8-16.2-7.9-31.4-15.2-49.7-24-12.6-6.1-24.3-11.7-41.1-13.7-4.8-.6-9.1-.8-15.5-.7-26 .2-47.4 4.2-56.6 5.8-17.9 2.9-42.1 7.3-70.9 13.4Z" fill="#B219CD"/><path d="M720.6 463c31-6.6 62.3-11.9 93.7-15.8 1.4-.2 2.2-2 .8-2.8-.4-.2-.8-.5-1.3-.7-1.7-1-3.2 1.6-1.5 2.6.4.2.8.5 1.3.7.3-.9.5-1.9.8-2.8-31.7 3.9-63.3 9.2-94.5 15.9-2 .4-1.2 3.3.7 2.9ZM711.3 515.4c-11 78.4-21 156.9-30 235.6-1.1 9.9-2.2 19.7-3.3 29.6-.9 8.6-3.4 18.3-2.3 26.9 1 7.6 7 12.4 12.5 17 6 5 12.3 9.7 18.9 14 27.1 17.5 58.8 28 91 29.9 38.3 2.2 76.8-7.6 109.5-27.6 1.6-1 .1-3.6-1.5-2.6-57.2 34.9-130 36.3-188.3 3.2-6.7-3.8-13.2-8-19.4-12.6-6.3-4.7-16.5-11.1-19.1-18.8-1.2-3.7-.6-7.8-.2-11.7.5-4.9 1.1-9.9 1.6-14.8 1-9.2 2-18.4 3.1-27.6 4.3-37.5 8.7-74.9 13.5-112.3 5.4-42.5 11-85 17-127.4.2-1.9-2.7-2.7-3-.8ZM858.6 440.1c17.6 3.5 34.1 11.6 50.5 18.5 16.1 6.8 34 12.3 48.2 22.7 1.6 1.1 3.1-1.5 1.5-2.6-13.9-10.2-31.4-15.6-47.1-22.2-17-7.1-34.1-15.6-52.3-19.3-1.9-.4-2.7 2.5-.8 2.9Z" fill="#161616"/><path d="M937 609.7c-1.6 42.1-3.2 84.2-1.7 126.2.7 20.4 3.9 41.6.1 61.9-3.2 16.7-12.6 33.4-29.3 39.6-1.8.7-1 3.6.8 2.9 26.6-9.9 33.5-40.2 33.1-65.6-.2-17.2-1.7-34.4-2.1-51.7-.4-17.6-.2-35.1.1-52.7.4-20.2 1.2-40.4 1.9-60.6.2-2-2.8-2-2.9 0Z" fill="#161616"/><path opacity=".38" d="M922.6 586c-5.3 18.2-13.6 38.1-26.4 57.9-57.3 88.1-162.2 105.7-189 109.4 36 3.8 72.4 7.9 109.2 12.3 40.6 4.8 80.7 9.9 120.2 15.1-2.5-44.7-2.5-81.5-1.9-107.8 1.1-54.4 5-98.4-2.1-99.8-1.7-.4-4.7 1.5-10 12.9Z" fill="#3D3D3D"/><path opacity=".42" d="M934.9 618.7c-3.6 10.6-9.1 25.6-17.2 42.9-11.4 24.5-22.3 48.1-36.4 62.6-39.4 40.5-116.4 23-116.6 25.8-.1 1.6 28.1 6.1 170.5 19.2 0-50.2-.1-100.3-.3-150.5Z" fill="#3D3D3D"/><path d="M1114.3 1031c-367-49-734.1-98-1101.1-146.9 108.3-62.8 216.7-125.6 325-188.4 331.1 32.6 662.3 65.3 993.4 97.9-72.5 79.1-144.9 158.3-217.3 237.4Z" fill="#fff" stroke="#161616" stroke-width="3" stroke-miterlimit="10"/><path d="M9.6 892.6c367.9 48.8 735.8 97.6 1103.6 146.4" stroke="#161616" stroke-width="16" stroke-miterlimit="10"/><path d="M1106.2 1041.2c77.1-81.5 154.2-163.1 231.2-244.6" stroke="#161616" stroke-width="16" stroke-miterlimit="10"/><path d="M983.4 827c-37.5 29.3-74.2 59.5-110.3 90.5-1.5 1.3.7 3.4 2.1 2.1 36.1-31 72.9-61.2 110.3-90.5 1.5-1.1-.6-3.3-2.1-2.1Z" fill="#161616"/><path d="M874.5 919.1c11.8 2.5 23.8 2.5 35.9 2.6 13.6.2 26.4 1.6 39.4 5.4 24.4 7.1 48.3 11.8 73.8 11.2 1.9 0 1.9-3 0-3-13.1.3-26.2-.5-39.2-2.6-12.2-2-23.8-5.6-35.7-8.9-11.4-3.2-22.8-4.7-34.7-4.9-13-.3-26 .1-38.8-2.6-1.8-.5-2.6 2.4-.7 2.8ZM985.6 829.2c39.6 3.2 78.9 9.5 117.5 18.9 1.9.5 2.7-2.4.8-2.9-38.8-9.5-78.4-15.8-118.3-19-1.9-.2-1.9 2.8 0 3Z" fill="#161616"/><path d="M1025.9 936.5c27.9-27.6 54.7-56.4 80.1-86.4 1.2-1.5-.9-3.6-2.1-2.1-25.4 29.9-52.2 58.7-80.1 86.4-1.4 1.4.7 3.5 2.1 2.1ZM909.4 907.2c34.4-4.2 69.2.1 101.5 12.7 1.8.7 2.6-2.2.8-2.9-32.5-12.6-67.7-17-102.3-12.8-1.9.2-1.9 3.2 0 3ZM961.5 896.2c21.2 1.6 42.1 4.9 62.8 9.8 1.9.5 2.7-2.4.8-2.9-20.9-5-42.1-8.3-63.6-9.9-2-.1-1.9 2.9 0 3ZM945.6 874.1c31.9.7 63.5 5.3 94.3 13.8 1.9.5 2.7-2.4.8-2.9-31-8.5-62.9-13.2-95.1-13.9-1.9 0-1.9 3 0 3ZM985.2 864.9c17.2 2.4 34.2 5.4 51.2 9 1.9.4 2.7-2.5.8-2.9-17-3.6-34-6.6-51.2-9-1.9-.3-2.7 2.6-.8 2.9ZM963.3 932c-6.1 9.4-12.2 18.8-18.4 28.1-.6.9.2 2.4 1.3 2.3 49.3-5.6 99.3-2.4 147.5 9.4 1.9.5 2.7-2.4.8-2.9-48.5-11.9-98.7-15.1-148.3-9.6.4.8.9 1.5 1.3 2.3 6.1-9.4 12.2-18.8 18.4-28.1 1.1-1.6-1.5-3.1-2.6-1.5Z" fill="#161616"/><path d="m1084.2 875.2 57.8-1.2c-.5-.6-1-1.3-1.4-1.9-13.3 31.7-26.7 63.3-40 95-.7 1.8 2.2 2.6 2.9.8 13.3-31.7 26.7-63.3 40-95 .4-.9-.6-1.9-1.4-1.9l-57.8 1.2c-2 .1-2 3.1-.1 3ZM1011.1 949.7c5.1-1 10.2-1.2 15.4-.8 1.9.1 1.9-2.9 0-3-5.5-.4-10.8-.1-16.2.9-1.9.3-1.1 3.2.8 2.9ZM1039.5 950c15.7.6 31.4 2.1 47 4.5 1.9.3 2.7-2.6.8-2.9-15.8-2.5-31.8-4-47.8-4.6-1.9-.1-1.9 2.9 0 3ZM1040.4 931.2h11.2c1.9 0 1.9-3 0-3h-11.2c-1.9 0-1.9 3 0 3Z" fill="#161616"/><path d="M1063.7 930.9c12.3.3 24.5 1.5 36.7 3.5 1.9.3 2.7-2.6.8-2.9-12.4-2-24.9-3.2-37.5-3.6-1.9 0-1.9 3 0 3ZM1061.8 913.8c14 .2 27.9 1 41.8 2.6 1.9.2 1.9-2.8 0-3-13.9-1.6-27.8-2.5-41.8-2.6-1.9-.1-1.9 2.9 0 3ZM967.9 947c6.7.2 13.3-.6 19.9-2.2 1.9-.5 1.1-3.4-.8-2.9-6.3 1.6-12.6 2.3-19.1 2.1-1.9 0-1.9 3 0 3ZM1015.4 790.3c-2.6 3.2-5.6 9.7-2.5 13.6 1.9 2.4 5.5 1.9 8.2 2 4.9.2 9.8.5 14.7.7 19.9.9 39.7 1.9 59.6 2.8 1.9.1 1.9-2.9 0-3-14.7-.7-29.3-1.4-44-2.1-7.2-.3-14.3-.7-21.5-1-3.5-.2-7.2 0-10.7-.5-2.6-.4-4.5-.5-4.4-3.7.1-2.5 1.2-4.8 2.7-6.7 1.2-1.5-.9-3.7-2.1-2.1Z" fill="#161616"/><path d="M1018.1 794.1c16.8.6 33.6 1.1 50.4 1.7 8.2.3 16.5.5 24.7.8 7.4.3 15.2.8 20.5 6.5 1.3 1.4 3.4-.7 2.1-2.1-4-4.4-9.4-6.1-15.2-6.9-8.6-1.1-17.5-.9-26.2-1.2-18.8-.6-37.6-1.3-56.3-1.9-1.9.1-1.9 3.1 0 3.1Z" fill="#161616"/><path d="M1094.4 809.5c7.7.1 15-2.3 21.2-6.9 1.5-1.1 0-3.7-1.5-2.6-5.8 4.3-12.4 6.6-19.7 6.5-2 0-2 3 0 3Z" fill="#161616"/><path d="M1096.8 794.1c-4.2 2.8-6.1 8-4.7 12.8.5 1.8 3.4 1.1 2.9-.8-1-3.5.2-7.4 3.3-9.5 1.6-1 .1-3.6-1.5-2.5Z" fill="#161616"/><path d="M367.1 434.6c-2.5-5.2-9.6-5.6-13.4-1.7-4.1 4.2-6 12.3-5.6 18 .9 11.5 12.1 16.9 15.1 27.2 1.4 4.7 8.6 6.2 11 1.4 4-7.9 9.6-14.7 14.6-21.9 4.4-6.4 11.1-16.3 8.7-24.5-1-3.5-4.1-6.5-7.9-6.9-4.6-.5-7.8 2.3-10.5 5.7-2.7 3.5-5.1 7.1-7.1 11-1.8 3.4-3.2 7.4-6.7 9.3 2.9 1.2 5.9 2.4 8.8 3.6-1.3-4.3-2.6-8.6-3.8-12.8-3.3 1.9-6.7 3.9-10 5.8 4.5 5.1 12.2 5.8 17.6 1.5 2.5-2 3.9-4.7 5.6-7.3.8-1.2 1.5-2.3 2.7-3.1.8-.6 1.8-1 2.8-1.3 2-.1 1.9-.3-.2-.6-1-1.7-2-3.5-3-5.2v.7c1.5-1.9 2.9-3.9 4.4-5.8-.2.1-.4.1-.6.2-7.3 2.3-4.2 13.9 3.2 11.6.2-.1.4-.1.6-.2 2.7-.8 4.2-3.1 4.4-5.8v-.7c.1-2.1-1.3-4.1-3-5.2-5-3.2-12.4-.1-16.5 3.2-2.3 1.9-3.9 4.1-5.5 6.6-1 1.6-2.1 5-4 2.8-4-4.5-11.7.3-10 5.8 1.3 4.3 2.6 8.6 3.8 12.8 1.1 3.8 5.4 5.5 8.8 3.6 5.1-2.7 7.9-7.4 10.4-12.4 1.5-2.9 3-5.7 4.9-8.3.3-.5 3-3.3 2.9-3.8-2.6-2.2-3.9-2.1-4.1.3-.2.8-.5 1.5-.8 2.2-5 12.1-15 21.3-20.9 32.9 3.7.5 7.3 1 11 1.4-1.9-6.5-6.2-11.2-10.3-16.4-1.7-2.2-3.6-4.6-4.2-7.3-.4-1.9-.2-3.6.3-5.4.3-1.2.7-2.3 1.2-3.4 1.7-2.4 0-3-5-1.7 3.3 7.1 13.6 1 10.3-5.9Z" fill="#B219CD"/><path d="M373.6 467.4c8.8-10.6 16.5-21.9 22.9-34 3.6-6.8-6.8-12.9-10.4-6.1-5.9 11.3-12.8 21.9-21 31.6-4.9 5.9 3.5 14.4 8.5 8.5Z" fill="#EC615B"/><path d="M397.3 297.7c-1.6 10.5-1.2 20.8 1.6 31.1 1.5 5.6 10.2 3.2 8.7-2.4-2.3-8.6-3-17.5-1.6-26.3.8-5.7-7.9-8.1-8.7-2.4Z" fill="#5222D0"/><path d="M400.7 302.3c11 4.7 19.8-4.5 20.2-15.3 0-1-.6-3.7-.2-4.6h-.5c.9.3 1.6.8 2 1.7 1.6 2 2.4 4.6 4.1 6.6 3.5 4.1 8.3 4.7 13.4 5 2.5.1 5.5-.2 7 2.2 1.5 2.3.7 6.2.5 8.8-.2 3.6-.5 7.3-.8 10.9-.1.9-1 4.3.3 3-.8.9-4.1 1.1-5.2 1.4-6.6 1.5-13.4 2.1-20.1 1.7-3.5-.2-8.8.2-10.8-2.9-1.8-2.9-1.9-7.3-1.4-10.6-2.7.4-5.5.7-8.2 1.1 2.4 5.3 4.7 10.6 7.1 16 1.6 3.5 7.4 2.5 8.2-1.1 2.4-10.8-.9-22.1 2.5-32.7-2.5.7-5 1.3-7.5 2 2.9 3.5 2.2 11 2.9 15.3.8 5 2.2 9.6 4.5 14 2.1 3.8 8.7 2.2 8.4-2.3-.8-12-1.6-24.1-2.3-36.1-2.9.4-5.9.8-8.8 1.2 4.2 11.3 4.8 23.1 1.5 34.7l6.6-2.7c-5.6-4.3-9.8-9.9-12.7-16.3-1.9-4.1-8.6-2-8.4 2.3.2 4 .3 8 .5 12h9c-.2-5 0-9.9 1-14.8.4-1.7.8-3.5 1.3-5.2.3-1.1.7-2.3 1.1-3.4 1.3-1.6 1.1-2.2-.6-1.8 4.8 6.8 5.4 17 4.6 24.9 2.8-.8 5.6-1.5 8.4-2.3-2.3-4.7-3.8-9.7-4.4-14.9-.3-2.7-.4-5.4-.2-8.1 0-.4.5-3.2.3-3.4-.7.1-1.4.1-2.1.2.4.8.8 1.5 1.2 2.3 4.6 9.4 6 20 4.9 30.4 2.8-.8 5.6-1.5 8.4-2.3-1.8-3.9-3.2-8-4-12.2-.3-1.8-.5-3.6-.3-5.4.1-1 .3-2 .6-3 1.1-1.2 1.2-1.7.3-1.4-1.2-.2-2.3-.3-3.5-.5 1.6.8 2.6 8.7 2.9 10.5.6 4.3.5 8.8-.1 13.1h8.7c-1.1-3.2-1.9-6.5-2.4-9.8-.5-3.2-.2-6.5-1.2-9.6 2.2 6.9 1.8 14.2-.2 21 2.7-.4 5.5-.7 8.2-1.1-1.2-2.6-2.2-5.4-2.7-8.3-.3-1.4-.4-2.8-.5-4.2 0-.6-.1-1.2 0-1.8.3-1.4-.4-1.5-2-.4l-2.7-2.1c5.7 9.8-5.7 20.7-15.4 19.3 1.1 1.4 2.2 2.9 3.3 4.3-.1-1.8-.7-4.4-.1-6.1l-2.1 2.7c-1.7 1.1 7.4-.2 3.6-.6-5.2-.5-6 7.5-1.2 8.8 4.8 1.3 9.2 3.9 14.3 3.3 4.4-.5 7.7-3.1 9.5-7 1.9-4.1 2.3-8.9 1.7-13.4-.3-2.5-.9-4.8-1.9-7-.4-1-.9-2-1.4-3-.3-.6-.7-1.2-1.1-1.8-.4-.9-.6-.7-.4.6 2.8.8 5.6 1.5 8.4 2.3.1-1.9.3-3.7.4-5.6-2.9.4-5.9.8-8.8 1.2 1.7 5 1.4 9.6-.6 14.5-2.2 5.4 6.5 7.7 8.7 2.4 2.5-6.3 2.7-12.9.6-19.3-1.6-4.9-8.5-3.9-8.8 1.2-.1 1.9-.3 3.7-.4 5.6-.3 4.4 6.5 6.3 8.4 2.3 2.2-4.8 1.6-11-3.5-13.7-4.4-2.3-10.3-.3-12.4 4.2-2.9 6.2 3.6 11.7 4.2 17.7.3 2.8.3 8.4-2.8 9.8-3 1.3-8.7-2.2-11.5-3-.4 2.9-.8 5.9-1.2 8.8 9.1.8 9.3-11.2 3-15.1-3.1-1.9-7.3-3.4-10.6-1.4-4.1 2.5-2.9 7.5-2.8 11.5.1 1.8 1.3 4.1 3.3 4.3 16 2.3 30.6-10.5 27.5-27.2-.6-3.3-1.9-7-5.6-7.7-3.1-.6-6.2 1.2-7.5 4-3.3 7.1.6 17.6 3.6 24.1 1.7 3.7 7.2 2.4 8.2-1.1 2-6.7 2.6-13.6 1.4-20.5-.9-5.2-2.5-12-9-12.2-14.5-.3-8.5 23.5-6 31 1.3 3.8 7.9 4.7 8.7 0 1.2-7.7 1.1-15.4-.9-23-1.2-4.5-3.6-13.3-10.1-11-5.2 1.9-6.8 9.4-6.8 14.3 0 7.2 2.6 14.3 5.6 20.6 2.1 4.5 8 1.7 8.4-2.3.9-8.4.2-16.9-2.2-25-1.7-5.7-4.8-17.2-12.4-16.9-7.4.2-7.8 9.7-7.8 15.1 0 8.7 2.2 17.1 6 25 2.1 4.4 8 1.7 8.4-2.3.8-7.1.1-14.3-2.1-21.1-1.6-5-4.2-12.2-10.2-12.9-6.6-.7-8.9 6.9-10.4 11.8-2.2 7.2-2.9 14.8-2.6 22.4.3 5.8 9.2 5.8 9 0-.2-4-.3-8-.5-12-2.8.8-5.6 1.5-8.4 2.3 3.6 7.9 9.1 14.3 15.9 19.5 2.4 1.8 5.9-.2 6.6-2.7 3.8-13 3.3-26.8-1.5-39.5-1.7-4.4-9.2-4.2-8.8 1.2.8 12 1.6 24.1 2.3 36.1 2.8-.8 5.6-1.5 8.4-2.3-5.2-9.7-1.7-22.6-8.8-31.2-2.3-2.8-6.6-1-7.5 2-3.5 10.7-.1 21.9-2.5 32.7 2.7-.4 5.5-.7 8.2-1.1-2.4-5.3-4.7-10.6-7.1-16-1.5-3.4-7.6-2.6-8.2 1.1-1.1 7-.6 16.8 5.5 21.6 2.8 2.2 6.5 2.4 10 2.8 4.7.5 9.5.7 14.3.4 4.6-.3 9.1-1 13.6-2 3-.7 7-1.2 9.1-3.6 2.7-2.9 2.2-7.6 2.5-11.3.3-4.4.8-8.7.9-13.1.1-7.2-2.8-13.5-10.2-15.3-3-.7-6.1-.3-9.2-.8-4.8-.7-5.3-4.8-7.9-8.2-3.3-4.4-10.4-7.2-14.9-2.9-2.9 2.8-2.3 6.4-2.2 10 .1 3.2-1.5 11.3-6.6 9.1-6.1-1.4-10.7 6.4-5.4 8.6ZM135.7 352.1c7 6.4 13.6 13.3 19.3 20.9 3.8 5 7.7 15 14.5 16.4 4 .8 7.2-1.3 10.2-3.7 4.1-3.3 8.1-6.7 12.2-10.1 4.1-3.4 8.1-6.7 12.2-10.1 2.9-2.4 6.2-4.6 6.4-8.7.2-3.9-2.3-6.8-4.6-9.7-3.2-4.1-6.5-8.2-9.7-12.3-3.2-4.1-6.5-8.2-9.7-12.3-2.4-3-4.6-7-8.6-7.9-3.6-.8-6.9 1.3-9.9 2.9-4 2.1-7.9 4.5-11.6 7-7.3 5-14.1 10.7-20.3 17.1-1.9 2-1.7 5.7.9 7.1 6.5 3.3 12.7 7.2 18.3 12 2.5 2.1 4.9 4.4 7.2 6.8 1.1 1.2 2.2 2.4 3.3 3.7.7.8 1.4 1.7 2.1 2.5.9 2.4 2.2 2.3 3.8-.5.4 2.7.7 5.5 1.1 8.2 10.4-6.3 19.9-14.1 28.1-23.1 3.4-3.8-.9-9.6-5.5-7.1-7 3.8-14.2 6.9-21.7 9.3l5.1 6.6c4.2-6.7 9.4-12.5 15.5-17.6-2.4-1.8-4.7-3.6-7.1-5.5-5.5 8.2-12.4 15.4-20.3 21.3l6.6 5.1c2.6-9.4 7.9-17.7 15.8-23.6l-6.2-6.2c-4.5 8.9-10.8 16.5-18.9 22.3h4.5c.3.3.5.7.8 1 .2-.8.4-1.6.6-2.3.3-1 .6-2 1-3.1.9-2.7 2.1-5.2 3.4-7.7 2.5-4.7 5.6-8.8 9.3-12.6-2.4-1.8-4.7-3.6-7.1-5.5-5.3 10.9-12.6 20.4-21.8 28.4 2.6 1.1 5.1 2.1 7.7 3.2 1.1-11.8 6.2-22.6 14.5-31.1-2.4-1.8-4.7-3.6-7.1-5.5-4.1 8-10.1 14.3-17.9 18.8 2.3 1.3 4.5 2.6 6.8 3.9-.1-3.6.4-7.1 2.1-10.3.7-1.4 1.6-2.7 2.6-3.8 1.6-1.9 4.6-2.4 1.8-4.2-1.3-1.6-2-1.5-2.1.5-.5 1-.9 2-1.4 3-.8 1.5-1.6 2.9-2.4 4.3-.9 1.4-1.8 2.8-2.8 4.1-.8 1-1.5 2-2.4 3-1.4.8-1.5 1.4-.3 1.7l2.1 2.7c-1-3.2 2.3-9.2 3.8-11.9.9-1.5 6.1-10.1 8.4-9.6 1.1.2 2.6 5.8 3 6.8.8 2.2 1.5 4.5 2 6.8s1.1 4.7 1.1 7c0 2.7 0 2.8-2.2.9-6.3-5.4-7-19.1 2.3-22.2 4.7-1.6 6.1 4.4 7.2 7.8 1.6 4.9 3.1 9.9 4.7 14.9 2.5-1.5 5-2.9 7.5-4.4-5.6-5.5-8.6-12.5-8.8-20.4-1.9 1.4-3.8 2.9-5.7 4.3 10.5 4 12.2 17.2 13.6 26.8.8 5.7 9.5 3.3 8.7-2.4-2-13.6-5.7-27.8-19.9-33.1-2.7-1-5.8 1.6-5.7 4.3.2 10.2 4.2 19.5 11.4 26.7 3.1 3.1 8.9 0 7.5-4.4-1.8-5.7-3.4-11.4-5.4-17-1.4-4-3.2-8.2-6.9-10.6-8-5.3-17.4.7-21.5 8-4.7 8.5-3.5 19.1 2.9 26.3 5.3 5.9 15.6 9.1 18.5-.8 2.6-8.8-1.9-21.8-6.3-29.4-6-10.2-15.9-2.5-21 4.1-2.7 3.5-4.8 7.3-6.3 11.4-1.4 3.8-3.7 10-.9 13.7 6.6 8.6 16.1-6 19-10.8 2.5-4 6.1-9.5 5.5-14.5-.6-4.7-5-6.9-9.2-5.1-9.2 4-13.9 16.3-13.5 25.6.1 3.4 3.7 5.6 6.8 3.9 9-5.2 16.3-12.8 21.1-22 2.3-4.4-3.4-9.2-7.1-5.5-10 10.2-15.8 23.2-17.1 37.4-.4 4.2 5 5.5 7.7 3.2 9.7-8.4 17.6-18.7 23.2-30.2 2.1-4.4-3.3-9.3-7.1-5.5-5.8 6-10.4 12.9-13.6 20.6-2.1 5.1-6.5 14.8.3 18.3 1.4.7 3.2.9 4.5 0 9.4-6.7 17-15.2 22.2-25.5 1.8-3.6-2.2-9.1-6.2-6.2-9.8 7.4-16.7 17.2-19.9 29-1 3.5 3.3 7.5 6.6 5.1 9.3-6.8 17.1-14.9 23.6-24.5 3-4.5-3.4-8.5-7.1-5.5-6.7 5.5-12.3 12-16.9 19.4-2.1 3.3 1.4 7.8 5.1 6.6 8.3-2.6 16.3-6 23.9-10.2-1.8-2.4-3.6-4.7-5.5-7.1-7.7 8.5-16.5 15.8-26.3 21.7-3.6 2.2-2.4 6.8 1.1 8.2 4.2 1.7 8.7-1.7 8.9-6 .3-5.2-5.1-10.1-8.3-13.5-8.1-8.8-17.8-16-28.4-21.3.3 2.4.6 4.7.9 7.1 4.7-4.8 9.7-9.2 15-13.2 4.8-3.6 10.8-8.4 16.5-10.3 1.7-.6 1.6-.9 3 .5s2.5 3.1 3.6 4.6c2.2 2.8 4.5 5.7 6.7 8.5 2.4 3.1 4.9 6.2 7.3 9.3 1.3 1.7 6.6 6.8 6.2 8.7-.4 2.2-5.9 5.4-7.7 6.9l-8.4 6.9-8.4 6.9c-1.2 1-3.8 3.9-5.9 2.8-.8-.4-2.2-3.4-2.7-4.1-7.3-11-16-20.9-25.7-29.8-4-3.5-10.4 2.8-6.1 6.7Z" fill="#4E86C6"/><path d="M140.5 344.1c3.6 7 26.2 46 35.8 32.7 3.4-4.7-4.4-9.2-7.8-4.5-.2.2-.3.5-.5.7 1.3-.7 2.6-1.5 3.9-2.2-1.7.2-5.8-5.5-6.9-6.8-2.2-2.5-4.4-5-6.4-7.7-3.9-5.3-7.3-10.9-10.3-16.7-2.6-5.2-10.4-.6-7.8 4.5Z" fill="#5222D0"/><path d="M319.4 220.6c-10.7-7.8-14.8-23.8-8.1-35.5 3.3-5.8 9.3-10.5 16.3-9.7 7.2.8 10.7 6 11.2 12.8.3 3.8-.1 7.7-.2 11.5-.2 3.6.2 7.8-.8 11.3-1 3.5-4.6 5.4-6 8.9-1.2 3 .1 5.6-3.4 6.6-1 .3-2.4.2-3.3.5-1.6-.2-1.6.1 0 .8-.4-1.3-.7-2.5-1.1-3.8-1.3-4.4-2.6-8.9-3.9-13.3-2.2-7.4-6.8-18.3-1-25.2-2.4.3-4.8.6-7.3.9 3.5 2.6 2.2 13.2 2.4 16.8l.9 22.5c.3 7.9 11.2 7.6 12 0 .8-7.9-.3-15.7-.6-23.7-.2-3.4-.2-6.9.3-10.3.2-1.7.6-3.3 1.1-4.9.3-1.1.8-2.2 1.3-3.2 1.1-1.7 1.1-1.9.1-.6-1.5.2-3.1.4-4.6.6-.3-.1 1.1 3.6 1.3 4.4.4 1.5.6 3.1.8 4.6.4 4.2.4 8.5.2 12.7-.1 1.9-.3 3.8-.6 5.8l-.6 3.6c-1 2.4.7 3 5.1 1.5.4-.8-.7-4-.8-4.9-.2-2.1-.3-4.3-.2-6.4.1-4.1.6-8 1.6-12 .3-1.2.6-2.3 1-3.5 1.5-2.6-.1-3.5-4.8-2.6-.4.7 1.2 4.5 1.4 5.2.9 4.2 1.1 8.5.7 12.8-.2 2-.4 8.5-2.7 9-7.5 1.8-4.3 13.4 3.2 11.6 7.9-1.9 10.1-9.9 11.1-17 1.1-8.4.7-17.9-2.5-25.8-3.1-7.6-12.2-7.7-16.2-.7s-4.9 16.9-4.8 24.8c.1 6.4.2 17.4 7.9 19.7 8.5 2.5 11.5-6.7 12.4-13.1 1.2-8.4 1.5-17 .1-25.4-1-6.2-5-18.1-13.5-15.8-8.2 2.1-9.8 16.4-10.2 23.2-.5 10.2 1.7 20.3.7 30.5h12c-.4-10.1-.8-20.2-1.3-30.3-.3-7.7-1.5-14.5-8-19.3-1.9-1.5-5.7-.9-7.3.9-6.6 7.8-7.1 17.4-4.8 27 1.2 5.2 2.9 10.4 4.4 15.5 1.4 4.8 2.2 10.6 4.8 14.8 4.1 6.8 15.5 5.2 21.4 1.7 3.1-1.8 5.2-4.8 6-8.3.5-2.2.3-3.1 1.7-4.9 1.6-2 3.2-3.6 4.2-6 1.7-3.8 1.8-8 2-12 .2-5 .7-10.1.6-15.2-.2-8.9-3.1-17.3-10.8-22.4-14.8-9.8-33.4-.7-40.4 14.1-8.2 17.5-1.6 38.2 13.7 49.4 6.1 4.7 12.1-5.7 5.9-10.2Z" fill="#B219CD"/><path d="M318.8 247.1c2 3.2 5.6 4.4 9.2 3.3 1.6-.5 3-1.4 4.2-2.5.3-.3.7-.6 1-1 .3-.3.2-.3-.2.1 1.9-1 .4-1.3-4.4-1.1 2.4 2 6.2 2.5 8.5 0 2.1-2.2 2.5-6.3 0-8.5-2.9-2.5-6.6-2.9-10-.9-1.1.6-2.2 1.5-3 2.5-.7.9.9-.6-.2.2.2-.1.4-.2.6-.2-2.1.5-.6 1.2 4.5 2.1-1.7-2.7-5.4-4-8.2-2.2-2.5 1.7-3.8 5.4-2 8.2Z" fill="#EC615B"/><path d="M321.6 255v.9c0 1.5.7 3.2 1.8 4.2 1 1 2.7 1.8 4.2 1.8 1.6-.1 3.2-.6 4.2-1.8 1.1-1.2 1.8-2.6 1.8-4.2v-.9c0-1.5-.7-3.2-1.8-4.2-1-1-2.7-1.8-4.2-1.8-1.6.1-3.2.6-4.2 1.8-1.1 1.1-1.8 2.5-1.8 4.2Z" fill="#EC615B"/><path d="M262.2 144.4c26.3-31.3 51.5-63.5 75.7-96.6-2.3.9-4.5 1.8-6.8 2.8 2.3.7 4 1.9 5.7 3.6-.3-2.4-.6-4.8-.9-7.3-23.1 33-46.1 65.9-69.2 98.9 2.7-.7 5.5-1.4 8.2-2.2-2-1.2-4-2.4-6-3.7.7 2.7 1.4 5.5 2.2 8.2 10.5-13.7 20.1-27.9 28.8-42.8 3.9-6.7-6.5-12.7-10.4-6.1-8.7 14.8-18.3 29.1-28.8 42.8-2 2.6-.3 6.7 2.2 8.2 2 1.2 4 2.4 6 3.7 2.9 1.8 6.4.5 8.2-2.2 23.1-33 46.1-65.9 69.2-98.9 1.5-2.2.8-5.5-.9-7.3-3.1-3.2-6.8-5.4-11-6.7-2.7-.9-5.2.6-6.8 2.8-23.5 32.2-48.1 63.6-73.8 94.1-5 6.1 3.5 14.7 8.4 8.7Z" fill="#B219CD"/><path d="M194.9 484.4v-.9c0-7.7-12-7.7-12 0v.9c0 7.8 12 7.8 12 0v-.9c0-7.7-12-7.7-12 0v.9c0 7.8 12 7.8 12 0ZM99.1 400.7c7.7 0 7.7-12 0-12s-7.7 12 0 12Z" fill="#EC615B"/><path d="M126.2 406c5.8 0 5.8-9 0-9s-5.8 9 0 9ZM493.7 177.4c5.8 0 5.8-9 0-9s-5.8 9 0 9ZM550.1 313.4v1.7c0 1.2.5 2.4 1.3 3.2.8.8 2.1 1.4 3.2 1.3 1.2-.1 2.4-.4 3.2-1.3.8-.9 1.3-2 1.3-3.2v-1.7c0-1.2-.5-2.4-1.3-3.2-.8-.8-2.1-1.4-3.2-1.3-1.2.1-2.4.4-3.2 1.3-.8.9-1.3 2-1.3 3.2Z" fill="#5222D0"/><path d="M513.8 242c17 2.7 40.8 10.6 34.5 32.8-2.9 10.2-10.9 17.5-18.8 24-7.8 6.3-15.5 12.5-22.6 19.6-6.8 6.8-13 14.2-18.7 22-4.5 6.2-10.7 13.9-10 22.2.6 7.4 7.1 9.2 13 11.5 8.5 3.3 17.5 9.1 20.8 18 4.4 12-4.8 22.6-13.5 29.7-7.8 6.4-16.3 11.9-21.6 20.7-1 1.7 1.6 3.2 2.6 1.5 9.5-16 33.7-22.4 36.4-42.6 1.1-7.9-2.5-15.3-8.2-20.6-2.8-2.7-6.1-4.9-9.5-6.8-4.1-2.2-8.9-3.1-12.9-5.4-11.2-6.5 2.8-23.1 7.6-29.4 6.9-9.1 14.6-17.5 23.1-25.1 13.6-12.4 34.9-23.4 36.4-44.1 1.5-21-21-28.1-37.6-30.7-2.1-.5-2.9 2.4-1 2.7ZM218.4 238.8c-17.8 21.9-37.9 41.8-60.1 59.2-21.8 17.1-45.5 30.7-69.6 44.2-22.2 12.5-44.6 25.3-63.6 42.6-8.5 7.7-17.9 16.7-22.7 27.4-3.7 8.3-4 19.1 5.5 23.4 5.2 2.3 11.3 1.5 16.7.6 8.8-1.5 17.5-3.4 26.2-5.1 8.9-1.7 17.8-3.5 26.7-5.2 8.5-1.6 24.4-3.1 24.8 9.6.1 1.9 3.1 1.9 3 0-.4-11.8-13-14.8-22.7-13.6-14.8 1.9-29.4 5.6-44.1 8.4-10.3 2-37.8 10.3-35.8-9.4 1.3-12.7 13.3-23.7 22-32 18.4-17.4 40.5-30.3 62.5-42.7 23.1-13 46.1-25.8 67.3-41.8 24.4-18.5 46.5-39.9 65.8-63.6 1.4-1.4-.7-3.5-1.9-2ZM59.3 444.2c-8.8 10.6-19.1 23.1-17.5 37.8 1.2 11.3 9.3 21.9 21.5 21.1 7.8-.5 14.7-4.8 21.5-8.1 8.5-4.1 17.2-7.8 26.2-10.5 8.9-2.6 18.2-4.3 27.5-4.5 7.4-.1 15.8.4 22 5 9.4 6.8 3.6 17-1.4 24.6-4.9 7.3-9.2 14.8-13 22.7-3.4 7.2-6.4 14.7-8.8 22.3-1.8 5.7-3.9 12.4.5 17.4 9.4 10.9 23.7 1.6 31.6-5.8 12.1-11.3 25.2-20.7 40.3-27.7 16.9-7.8 35.3-12.4 53.8-13.4 9.4-.5 18.9-.2 28.2 1.3 8.3 1.3 17.6 3.9 21.5 12.2.8 1.7 3.4.2 2.6-1.5-5.4-11.7-20.2-13.5-31.6-14.6-14.9-1.4-30.1-.3-44.7 2.9-14.6 3.2-28.9 8.6-41.9 16-6.4 3.6-12.4 7.7-18.2 12.2-6.5 5.1-12 11.4-18.6 16.1-5.9 4.2-18.5 7.3-22-1.9-1.7-4.5.5-9.7 1.9-14.1 1.5-4.6 3.2-9.1 5.1-13.5 3.3-7.8 7.2-15.3 11.6-22.5 3.9-6.3 9.7-12.7 11.1-20.2 2.3-12.2-9.7-18.5-20-20-15.3-2.1-31.5 1.4-45.9 6.6-8.8 3.2-17.1 7.3-25.5 11.4-8.7 4.3-19.5 7.6-26.9-.9-13.8-15.8.7-35.7 11.2-48.4 1.3-1.4-.8-3.5-2.1-2Z" fill="#161616"/><path d="M116.8 494.8c9.4-3 17.7 6.2 17.9 15.1.2 9.4-6 17.5-12.2 23.9-1.4 1.4.8 3.5 2.1 2.1 7.6-7.8 15.5-18.9 12.5-30.5-2.4-9.1-11.6-16.5-21.1-13.5-1.8.6-1.1 3.5.8 2.9ZM466.1 236.8c4.6 3.8 10 4.6 15.7 5.8 6.2 1.3 11.6 3.7 15.9 8.5 8.1 9.1 10.6 22.8 4.6 33.6-.9 1.7 1.6 3.2 2.6 1.5 5.8-10.4 4.6-23.2-1.8-33-3-4.6-7.2-8.6-12.3-11-7.2-3.4-16.2-2.3-22.6-7.5-1.5-1.2-3.6.9-2.1 2.1ZM99.4 449.8c5.7 15.3 23.8 11.4 34.9 5.4 7.1-3.8 13.7-8.7 19.5-14.3 6.2-6.1 11.2-13.3 17.3-19.5 6.7-6.8 16.1-13 26.2-11.3 9.1 1.5 14.6 9.6 20.4 15.8 7.6 8 22.9 16.2 30.6 3.5 1-1.7-1.6-3.2-2.6-1.5-4.9 8-15.3 5.2-21.3.4-5.4-4.4-9.3-10.4-14.6-14.9-10-8.6-22.5-7.8-33.1-.6-11.7 7.9-18.8 21-29.5 30.1-6.3 5.3-13.6 10.2-21.4 13.1-8.3 3.1-19.9 2.9-23.5-6.9-.7-1.9-3.6-1.1-2.9.7ZM124.4 356.6c12.8 11.1 23.5 24.3 31.8 39.1.9 1.7 3.5.2 2.6-1.5-8.4-15.1-19.2-28.4-32.3-39.7-1.4-1.3-3.6.9-2.1 2.1Z" fill="#161616"/><path d="M127 353.4c10.8-14.3 26.1-28.9 43.1-35.4 2.7-1 5.8-1.9 8.7-1.2 3.6.8 5.7 3.9 7.8 6.7 3 3.9 5.9 7.9 8.8 11.9 5.7 8 11.1 16.3 16.2 24.7 1 1.6 3.6.1 2.6-1.5-6.4-10.5-13.3-20.8-20.6-30.7-5.5-7.5-10.5-16.3-21.2-13.8-9.3 2.2-18.2 9-25.5 14.7-8.5 6.7-16 14.5-22.6 23.1-1 1.5 1.6 3 2.7 1.5Z" fill="#161616"/><path d="M158 397c20.4-8.6 38.6-21.2 53.7-37.4 1.3-1.4-.8-3.5-2.1-2.1-14.7 15.8-32.5 28.3-52.4 36.6-1.8.8-1 3.7.8 2.9ZM138.6 355.4c11.4-10.3 24.1-18.8 38.1-25.3 1.7-.8.2-3.4-1.5-2.6-14.2 6.6-27.1 15.3-38.7 25.8-1.5 1.2.7 3.4 2.1 2.1ZM146.9 360.4c6.2-4.5 12.4-8.9 18.6-13.4 1.6-1.1.1-3.7-1.5-2.6-6.2 4.5-12.4 8.9-18.6 13.4-1.6 1.2-.1 3.8 1.5 2.6ZM151.1 367.3c10.4-7.3 20.8-14.7 31.2-22 1.6-1.1.1-3.7-1.5-2.6-10.4 7.3-20.8 14.7-31.2 22-1.6 1.1-.1 3.7 1.5 2.6ZM159.9 375.5c6.4-5.2 13.1-9.8 20.1-14.1 1.7-1 .1-3.6-1.5-2.6-7.3 4.3-14.2 9.2-20.7 14.5-1.5 1.3.6 3.4 2.1 2.2ZM164.5 383.7c9.4-7.7 19.6-14.1 30.5-19.4 1.7-.8.2-3.4-1.5-2.6-11.2 5.4-21.5 12.1-31.1 19.9-1.5 1.2.6 3.3 2.1 2.1ZM370.1 446.5c4.9-6.2-.9-13.8-7.4-15.6-7.8-2.2-16.7 1.5-20.6 8.5-4.4 7.8-2.6 18 3.1 24.6 7.3 8.6 26.3 13.8 22.9 28-.5 1.9 2.4 2.7 2.9.8 3.9-16.2-15.6-21.2-23.7-30.9-5.7-6.9-6.7-18.5.5-24.8 2.9-2.5 7-4 10.8-3.8 4.5.2 14.2 5.1 9.5 11.2-1.3 1.4.8 3.5 2 2Z" fill="#161616"/><path d="M371.7 445.9c.8-5.4 3.3-10.2 7.3-13.9 1.9-1.8 4.1-3.2 6.5-4.3 1.2-.5 2.5-1 3.8-1.3 2.8-.6 3.4-.6 5.7 1.4 2.3 2.1 2.4 2.7 2.3 5.6 0 1.1-.2 2.2-.3 3.2-.3 2-.9 3.9-1.6 5.8-1.5 4.1-3.8 7.9-6.2 11.5-8.6 12.8-20.9 24.5-21.6 40.8-.1 1.9 2.9 1.9 3 0 .9-21.9 23.6-34.5 28.8-54.9 1-3.9 1.8-8.9.1-12.7-2.1-4.4-6.7-4.6-10.9-3.6-10.2 2.4-18 11.3-19.6 21.6-.5 1.9 2.4 2.8 2.7.8ZM388.7 294.9c-1.8 9.7-2.2 19.9 0 29.6 2.1 9.3 8.8 7.3 16.5 7.8 17.5 1.2 40.7 12.3 52.2-7.5 1-1.7-1.6-3.2-2.6-1.5-9.8 16.9-30.4 8.6-45.4 6.5-3.5-.5-6.8-.5-10.3-.4-5.4 0-7-2.6-7.8-7.4-1.5-8.7-1.3-17.5.4-26.2.2-2-2.7-2.8-3-.9Z" fill="#161616"/><path d="M389.1 299.7c5.4-3.3 10.1-3.9 16.2-4.9 2.6-.4 4.3-1.4 4.7-4.1 1.1-6.8-1.8-13.8 3.6-19.6 6-6.5 14.1-.7 16.6 5.9 1.2 3.1 1.9 6.7 4.3 9.2 3.1 3.3 7.2 2.4 11.1 3.5 15.1 4.1 10.6 23.6 7.4 34.1-.6 1.8 2.3 2.6 2.9.8 3.4-10.9 6.8-24.5-2.3-33.6-1.5-1.5-3.2-2.7-5.1-3.5-2.9-1.2-6.1-.6-9.1-1.7-5.8-2.1-5.7-10.7-9.2-15.1-6.3-7.8-17.1-6.7-21.4 2.4-1.2 2.5-1.6 5.1-1.8 7.8-.2 3.2 1.3 9.6-2.1 10.9-2.4 1-6.1.6-8.7 1.4-3.1.9-5.9 2.3-8.6 3.9-1.6 1.1-.1 3.7 1.5 2.6Z" fill="#161616"/><path d="M401 296.6c-1.5 11.8.5 23.5 5.7 34.2.8 1.7 3.4.2 2.6-1.5-5-10.2-6.8-21.4-5.3-32.7.3-1.9-2.7-1.9-3 0ZM304.8 230.1c-12.9-6-20.6-19.9-19.9-34.1.8-14.5 10.6-27.7 23.1-34.6 7.8-4.3 16.1-5.6 24-1 7.2 4.1 12.3 11.2 15.2 18.8 5.2 13.8 3.3 29.5-4.9 41.8-1.1 1.6 1.5 3.1 2.6 1.5 13.6-20.3 10.5-55.6-14.4-66.1-12.5-5.3-25.8 1.8-34.8 10.6-8.8 8.6-14.5 20.9-13.8 33.3.8 13.7 8.8 26.6 21.3 32.5 1.8.7 3.3-1.9 1.6-2.7Z" fill="#161616"/><path d="M303.4 233.7c-2.6 2.8-1.9 7.1 1.3 9.2 5.2 3.4 14.2.3 19.7-1 5.9-1.4 14.8-2.7 18.8-7.9 2.4-3.2 2.4-7.6-.7-10.3-1.5-1.2-3.6.9-2.1 2.1 4.6 3.9-1.4 8.4-5 9.8-3 1.1-6.1 2-9.2 2.8-2.9.7-5.8 1.4-8.7 1.9-1.8.3-3.8.8-5.6.9-2.6.1-10.1-1.3-6.3-5.3 1.3-1.5-.8-3.6-2.2-2.2Z" fill="#161616"/><path d="M309.2 244.4c.4 5.9 5.4 9.7 11.2 10.1 8 .5 14-6.2 18.7-11.7 1.2-1.5-.9-3.6-2.1-2.1-3.3 3.9-7 8.4-11.9 10.1-5 1.8-12.4-.2-12.8-6.4-.2-1.9-3.2-1.9-3.1 0Z" fill="#161616"/><path d="M317.3 255.6c-.8 4.1 1.7 8.4 6 9.1 4.4.7 8.2-3.2 8.3-7.4 0-1.9-3-1.9-3 0 0 2.5-2.4 5-5.1 4.4-2.3-.5-3.8-3.1-3.3-5.3.4-1.9-2.5-2.7-2.9-.8ZM296.8 192.3c8.6 5.5 15.2 13.2 19.4 22.5.8 1.8 3.4.2 2.6-1.5-4.4-9.8-11.4-17.8-20.5-23.6-1.7-1-3.2 1.6-1.5 2.6Z" fill="#161616"/><path d="M312.2 185c1.9 14.4 3.9 28.8 5.8 43.1.3 1.9 3.1 1.1 2.9-.8-1.9-14.4-3.9-28.8-5.8-43.1-.3-1.9-3.1-1.1-2.9.8Z" fill="#161616"/><path d="M317.4 209.5c2.6-9.4 8.6-17 17.1-21.8 1.7-.9.2-3.5-1.5-2.6-9.1 5.1-15.7 13.5-18.5 23.6-.5 1.9 2.4 2.7 2.9.8ZM208.4 466.6c4 8.7 8.3 17.3 13.1 25.6 2.4 4.1 5.6 11.9 11.5 9.4 1.8-.8.2-3.3-1.5-2.6-3.8 1.6-10.6-13.9-11.9-16.4-3.1-5.7-5.9-11.6-8.6-17.5-.8-1.8-3.4-.3-2.6 1.5Z" fill="#161616"/><path d="M211.1 468.4c8.5-6.6 16.8-13.4 25.4-19.8 7.5-5.7 15.6-11.2 24.8-13.8 9.9-2.9 18.5-.6 25.1 7.4 5.6 6.8 9 15.2 12.8 23 .8 1.7 3.4.2 2.6-1.5-7.3-15-15.9-36.2-36.4-32.9-10.2 1.6-19.4 7.2-27.7 13.2-9.8 7.2-19.2 14.9-28.8 22.4-1.4 1.1.7 3.2 2.2 2Z" fill="#161616"/><path d="M228.9 501.9c26.1-5.7 50.3-17.9 70.6-35.3 1.5-1.3-.7-3.4-2.1-2.1-19.9 17.1-43.7 28.9-69.3 34.6-1.9.4-1.1 3.3.8 2.8ZM253.2 473.7c-5.3-1.3-9.7-6.5-8.4-12.2 1.2-5.5 7.9-9.5 13.2-6.9 10.7 5.4 3.4 20.8-7.6 16.9-1.8-.6-2.6 2.3-.8 2.9 6.2 2.2 13.7-.8 16.1-7.1 2.4-6.2-1.5-13.7-7.6-15.9-6.6-2.4-14.1 2.1-16 8.7-2.2 7.4 3.2 14.7 10.3 16.5 1.9.5 2.7-2.4.8-2.9ZM306.5 397.8c-1.2-10.7-1.3-22.9 11.4-25.8 6.4-1.5 11.7-3.4 15.4-9.3 3.8-6 3.3-11.6 1.8-18.2-1.1-5.2-1-9.7 3.2-13.6 3.4-3.1 7.9-4.3 12.3-2.9 1.8.6 2.6-2.3.8-2.9-6.4-2-13.1.5-17.2 5.8-6.3 8.3 1.1 16.7-1.4 25.6-1.5 5.3-5.6 9.8-10.9 11.6-4.3 1.4-8.9 1.3-12.5 4.3-7.6 6.2-6.9 16.7-5.9 25.4.2 1.9 3.2 1.9 3 0ZM282.1 341.8c-3.1-2.5-.6-8.1 3.4-6 1.6.8 2.6 2.7 1.7 4.4-.9 1.7-3.2 2.6-4.9 1.7-1.7-.9-3.2 1.7-1.5 2.6 3.1 1.5 6.9.4 8.8-2.4 2-3 .7-6.8-2.2-8.6-2.9-1.8-6.8-1.3-8.7 1.7-1.7 2.8-1.3 6.7 1.3 8.8 1.5 1.1 3.6-1 2.1-2.2ZM418.9 186.8c-1.8-2.9-2.9-6.6-1.8-9.9.9-2.8 3.7-4.5 6.6-4.2 3.2.3 4.9 3.3 3.2 6.1-1.5 2.6-4.6 3.9-7.5 3.5-1.9-.2-1.9 2.8 0 3 4.3.5 9-2.1 10.6-6.2 1.5-3.7-.4-7.8-4.2-9-3.6-1.2-8 .2-10.2 3.3-3.3 4.5-2 10.6.7 15.1 1 1.4 3.6-.1 2.6-1.7ZM257.6 309.4c5.4 9.8 16.4 15.3 27.5 13.7 13.6-2 20.9-12.4 26.3-24 6.3-13.4 15-24.4 28.9-30.3 12.6-5.3 28.9-2.6 39.3-12.5 4-3.8 6.7-9.1 5.8-14.7-.7-4.3-3.3-7.9-2.3-12.4 1.2-4.9 5-8.5 9.8-9.5 1.9-.4 1.1-3.3-.8-2.9-5.8 1.3-10.5 5.7-11.9 11.6-.8 3.2-.2 6.1.8 9.2 1.6 5 2.2 9.1-1.1 13.7-5.8 8.1-16 9.2-25.1 10.5-8.1 1.2-15.7 3.4-22.7 7.6-6.2 3.7-11.7 8.7-16 14.5-4.7 6.4-7.3 13.9-11.1 20.8-4.8 8.5-12.7 15-22.8 15.6-9.2.5-17.8-4.4-22.3-12.5-.6-1.6-3.2-.1-2.3 1.6ZM236.7 145.4c-1.7 12.5-3.4 25-5 37.5-.3 1.9 2.6 2.7 2.9.8 1.7-12.5 3.4-25 5-37.5.3-1.9-2.6-2.7-2.9-.8Z" fill="#161616"/><path d="m236.2 184.6 35.4-25.5c1.6-1.1.1-3.7-1.5-2.6L234.7 182c-1.6 1.1-.1 3.7 1.5 2.6ZM238.6 147.1c29.6-39.7 58.7-79.7 87.3-120.1 1.1-1.6-1.5-3.1-2.6-1.5-28.6 40.4-57.7 80.5-87.3 120.1-1.1 1.5 1.5 3 2.6 1.5ZM275.3 154.6c27.2-36 53.6-72.6 79.2-109.8 1.1-1.6-1.5-3.1-2.6-1.5-25.6 37.1-52 73.8-79.2 109.8-1.2 1.5 1.4 3 2.6 1.5Z" fill="#161616"/><path d="M325 27c4.7-8.8 10.2-19.5 20.6-22.4 10.3-2.9 20.4 4.9 20.6 15.6 0 1.9 3 1.9 3 0C369.1 9.9 360.4.6 349.8.9c-13.9.4-21.7 13.7-27.4 24.6-.9 1.7 1.7 3.2 2.6 1.5Z" fill="#161616"/><path d="M355.1 44.5c5.1-7.6 9.7-15.4 13.8-23.6.9-1.7-1.7-3.2-2.6-1.5-4.1 8.2-8.7 16-13.8 23.6-1 1.5 1.6 3.1 2.6 1.5Z" fill="#161616"/><path d="M322.8 31.9c11.5-7.8 26.4-3.6 32.1 9 .8 1.8 3.4.2 2.6-1.5-6.4-14.1-23.5-18.8-36.2-10.1-1.6 1.1-.1 3.7 1.5 2.6Z" fill="#161616"/><path d="M317.5 40.9c10-6.4 24.7-2.2 29.3 9 .7 1.8 3.6 1 2.9-.8-5.4-12.8-21.9-18.3-33.7-10.8-1.6 1.1-.1 3.7 1.5 2.6ZM236.8 148.5c5.5 3.3 11-3.9 16.7-3.8 4.3.1 8.3 2.1 10.8 5.7 1.8 2.6 2.7 5.1 5.6 6.6 1.7.9 3.2-1.7 1.5-2.6-3.4-1.8-4.4-6.2-7.3-8.7-2-1.7-4.4-2.9-7-3.5-2.6-.6-5.3-.6-7.8 0-3.2.8-7.9 5.5-10.9 3.7-1.7-1-3.2 1.6-1.6 2.6Z" fill="#161616"/><path d="M253.2 143.1c20.2-26.6 40.5-53.3 60.7-79.9 1.2-1.5-1.4-3-2.6-1.5-20.2 26.6-40.5 53.3-60.7 79.9-1.1 1.5 1.5 3 2.6 1.5ZM284.9 123.1c18.8-27.6 38.7-54.3 59.8-80.2 1.2-1.5-.9-3.6-2.1-2.1-21.2 26.1-41.4 53-60.3 80.8-1 1.6 1.6 3.1 2.6 1.5ZM235.6 175.1c1.9-1.6 4.7 0 4.2 2.5-.4 1.9 2.5 2.7 2.9.8.5-2.4-.4-4.9-2.6-6.2-2.2-1.3-4.8-.8-6.7.8-1.4 1.2.7 3.3 2.2 2.1Z" fill="#161616"/><path d="M236.5 174.7c-.5 2.1-1.4 4-2.7 5.7.8.5 1.7 1 2.5 1.5.6-2.2 1.8-4.1 3.5-5.7l-2.4-.3c.5 1.1.1 2.3-.9 2.9.7.3 1.5.6 2.2.9-.4-1.4-.1-2.7.8-3.8-.6.1-1.2.2-1.8.2.8.4.7 1.5-.1 1.9.6.1 1.2.2 1.8.2-.6-.5-1.1-1.1-1.4-1.8-.1-.3-.2-.6-.3-1 0-.2-.2-2.3-.5-1.7-.9 1.7 1.7 3.2 2.6 1.5 1.4-2.6-2.2-4.9-4.2-2.8-2.1 2.3-.2 6.1 1.8 7.8.5.5 1.2.6 1.8.2 2.8-1.4 2.8-5.6.1-7.1-.5-.3-1.4-.3-1.8.2-1.6 1.9-2.2 4.3-1.6 6.7.2.9 1.4 1.4 2.2.9 2.5-1.5 3.2-4.5 2-7-.4-.9-1.7-.9-2.4-.3-2.1 1.9-3.5 4.3-4.2 7-.4 1.3 1.5 2.7 2.5 1.5 1.6-2.1 2.8-4.4 3.5-7 .4-1.7-2.5-2.5-3-.6ZM230.9 190.4c-2 10.8-6.5 20.7-13.6 29.1-1.2 1.5.9 3.6 2.1 2.1 7.4-8.9 12.3-19.1 14.4-30.5.3-1.8-2.6-2.6-2.9-.7ZM210 202.9c-10.4 7.7-21.4 14.6-32.8 20.7-1.7.9-.2 3.5 1.5 2.6 11.4-6.1 22.4-13 32.8-20.7 1.6-1.2.1-3.8-1.5-2.6ZM454.1 431.5c-2.7-4.2-7.2-2-9.6 1.2-2.6 3.3-4.7 7.2-6.9 10.8-1.7 2.8-3.7 5.9-4 9.4-.6 7 4.7 7.8 10 9.5 6.3 2.1 5.9 9.5 1.9 13.6-3.2 3.3-7.9 4.7-12.1 6.1-1.8.6-1 3.5.8 2.9 8.4-2.7 20.9-8.8 16.6-20-.7-1.8-1.9-3.3-3.5-4.3-.9-.5-1.9-.9-2.9-1.2-2.9-.9-3.7-.6-6-3.1-1.9-1.1-2.5-2.6-1.6-4.6.4-1.4.9-2.7 1.6-3.9.8-1.6 1.8-3.1 2.8-4.6 1-1.5 8-14.1 10.3-10.4 1 1.7 3.6.2 2.6-1.4ZM282.4 549.2c8.2-2.1 15.2 6 11.6 13.8-.8 1.7 1.8 3.3 2.6 1.5 4.7-10.1-4-21-14.9-18.2-2 .5-1.2 3.4.7 2.9ZM435.6 384.5c-3.8-2.8-3.8-10.1 2-10.3 2.1-.1 4.3 1.1 4.2 3.4 0 1.9-1.7 4.2-3.8 3.9-1.9-.3-2.7 2.6-.8 2.9 3.7.6 6.9-2.1 7.5-5.7.7-3.7-2-6.9-5.6-7.4-3.7-.6-7.5 1.5-8.8 5.1-1.3 4 .5 8.3 3.8 10.7 1.5 1.1 3-1.5 1.5-2.6ZM17.6 372.1c1.4-5.6 6.2-8.8 10.7-11.9 4.7-3.3 9.5-6.7 14.3-10 9.5-6.7 19-13.3 28.5-20 1.6-1.1.1-3.7-1.5-2.6-11.1 7.8-22.2 15.5-33.3 23.3-7.5 5.2-19.2 10.7-21.6 20.4-.5 1.9 2.4 2.7 2.9.8Z" fill="#161616"/><path d="M688.5 897.8 324 835.4c73.8-29.8 147.6-59.5 221.4-89.3 115.4 25.7 230.8 51.4 346.1 77.1-67.6 24.9-135.3 49.7-203 74.6Z" fill="#fff" stroke="#161616" stroke-width="3" stroke-miterlimit="10"/><path d="M683.5 899.3c.4 1.2.7 2.5 1.1 3.7.5 1.6 2.9 1.3 2.9-.4v-2.9c0-1.9-3-1.9-3 0 0 1.2-.2 2.3-.7 3.4h2.9c-.4-1.3-.5-2.5-.2-3.9-.9.1-1.8.2-2.7.4.3.3.3.5.1.8.9.1 1.8.2 2.7.4-.2-.7-.1-1.3.3-1.9-.9-.3-1.9-.5-2.8-.8-.2 1.6-.4 3.1-.6 4.7-.1.8.8 1.5 1.5 1.5.9 0 1.4-.7 1.5-1.5.2-1.6.4-3.1.6-4.7.2-1.5-2.1-1.9-2.8-.8-.8 1.3-1 2.8-.6 4.3.3 1.3 2.1 1.4 2.7.4.8-1.2.8-2.7-.1-3.8-.7-.9-2.5-1-2.7.4-.4 1.8-.3 3.7.2 5.5.5 1.5 2.4 1.3 2.9 0 .5-1.4.8-2.8.8-4.2h-3v2.9c1-.1 2-.3 2.9-.4-.4-1.2-.7-2.5-1.1-3.7-.4-2.1-3.3-1.3-2.8.6Z" fill="#161616"/><path d="M685.8 906.5c16.1-8.3 33.7-12.7 51-17.6 8.5-2.4 16.9-5 25-8.4 7.8-3.2 15.3-7.2 23-10.8 17.1-8 35.6-13.2 53.5-19.1 18.6-6.2 37.1-12.4 55.7-18.5 1.8-.6 1-3.5-.8-2.9-18.6 6.2-37.1 12.4-55.7 18.5-17.6 5.8-35.7 11-52.6 18.7-8.8 4-17.4 8.7-26.4 12.2-8.2 3.2-16.6 5.7-25.1 8.1-16.7 4.8-33.6 9.2-49.2 17.2-1.6.9-.1 3.5 1.6 2.6Z" fill="#161616"/><path d="M687.2 905.9c69.1-23.9 138-48.1 206.9-72.7 5.4-1.9 3.1-10.6-2.4-8.7-68.8 24.6-137.8 48.8-206.9 72.7-5.4 1.9-3.1 10.6 2.4 8.7ZM679.4 809.3c13 1.3 24.1 9.2 36.9 11.7 1.9.4 2.7-2.5.8-2.9-13-2.6-24.3-10.5-37.7-11.8-1.9-.1-1.9 2.9 0 3Z" fill="#161616"/><path d="M717.2 819.6c7.9-4.3 15.3-9.4 22-15.4 1.4-1.3-.7-3.4-2.1-2.1-6.6 5.8-13.7 10.8-21.4 14.9-1.7 1-.2 3.6 1.5 2.6ZM682.5 803.6c6.3-4.5 12.8-8.8 19.5-12.8 1.7-1 .1-3.6-1.5-2.6-6.7 4-13.2 8.2-19.5 12.8-1.6 1.2-.1 3.8 1.5 2.6Z" fill="#161616"/><path d="M702.5 791.3c11.4 4.3 22.8 8.5 34.3 12.8 1.8.7 2.6-2.2.8-2.9-11.4-4.3-22.8-8.5-34.3-12.8-1.8-.6-2.6 2.3-.8 2.9ZM670.4 820.7c30.1 9.3 59.8 20 88.9 32.1 1.8.7 2.6-2.2.8-2.9-29.1-12.1-58.8-22.8-88.9-32.1-1.9-.6-2.7 2.3-.8 2.9ZM673.3 844c18.7 9 37.6 17.5 56.7 25.8 1.8.8 3.3-1.8 1.5-2.6-19.1-8.2-38-16.8-56.7-25.8-1.7-.8-3.2 1.8-1.5 2.6ZM676 869.7c10.2 5.2 20.4 10.5 30.6 15.7 1.7.9 3.2-1.7 1.5-2.6-10.2-5.2-20.4-10.5-30.6-15.7-1.7-.9-3.2 1.7-1.5 2.6Z" fill="#161616"/><path d="M681.8 870.6c14.1-12 28.9-23 44.3-33.2 1.6-1.1.1-3.7-1.5-2.6-15.6 10.3-30.6 21.6-44.9 33.7-1.5 1.3.6 3.4 2.1 2.1ZM678.1 850.1c8-5.6 16-11.2 24-16.9 1.6-1.1.1-3.7-1.5-2.6-8 5.6-16 11.2-24 16.9-1.5 1.1 0 3.7 1.5 2.6Z" fill="#161616"/><path d="M683.1 904.7 306 840.5c-11.8-89.3-23.7-178.5-35.5-267.8 135.3 18.2 270.5 36.4 405.8 54.7 2.3 92.4 4.6 184.8 6.8 277.3Z" fill="#fff" stroke="#161616" stroke-width="3" stroke-miterlimit="10"/><path d="M459.1 750.2c-10.9-3.4-16.8-12.6-17.7-23.7-.9-11.3 1.3-22.2 11.8-28.1 9.3-5.2 20.4-3.7 28.7 2.6 8.3 6.3 15.7 19.2 9 29.1-1.1 1.6 1.5 3.1 2.6 1.5 7.2-10.6.4-24.6-8.4-31.9-9.1-7.5-21.4-9.8-32.1-4.5-12.4 6.1-15.6 18.5-14.6 31.4 1 12.5 7.6 22.8 19.9 26.6 1.8.5 2.6-2.4.8-3Z" fill="#161616"/><path d="M461.9 751.3c-4.6-7.6-3.1-18.2 4.3-23.5 7.4-5.3 18-3.1 23.6 3.7 1.2 1.5 3.3-.6 2.1-2.1-6.6-7.9-19-10.1-27.6-4-8.6 6.2-10.4 18.6-5 27.4 1 1.6 3.6.1 2.6-1.5Z" fill="#161616"/><path d="M472.2 755.5c-4.7-5-4-14.3 2.3-17.9 6.2-3.6 14.6.5 16.6 7.1.6 1.8 3.5 1.1 2.9-.8-2.6-8.4-13.1-13.4-21-8.8s-8.9 16.2-2.9 22.6c1.3 1.3 3.4-.8 2.1-2.2Z" fill="#161616"/><path d="M479.9 762.5c3.9 1.4 8.4-.9 9.9-4.6 1.6-3.7-.5-7.7-4-9.3-3.5-1.6-7.7-.7-9.6 2.7-1.8 3.3-1.2 7.8 1.8 10.2 1.5 1.2 3.6-.9 2.1-2.1-4-3.1-1.2-10.4 4.1-8.2 2.3.9 3.9 3.3 2.8 5.8-1.1 2.4-3.9 3.6-6.3 2.7-1.8-.7-2.6 2.2-.8 2.8Z" fill="#161616"/><path d="m676.3 627.3 8.8 275.5M676.9 627.1l8.1 271.8" stroke="#161616" stroke-width="3" stroke-miterlimit="10"/><path opacity=".37" d="M503.8 608.7c6.5 3.4 62.3 33.8 66.2 87.8 2.2 29.8-12.4 52.4-21.6 66.2-49.6 74.6-147.7 87.8-174.3 90.6C412.8 879 548 963.7 695.8 958.7c32.9-1.1 83.9-3.4 139.2-33.8 41.5-22.8 68.4-52.1 83.8-71.6-9.5-5.9-18.9-11.7-28.4-17.6-69.8 23.9-139.7 47.8-209.5 71.6-3.6-92.4-7.2-184.7-10.8-277.1-55.5-7-110.9-14.2-166.3-21.5Z" fill="#3D3D3D"/><path opacity=".5" d="M424.3 859.8c13 8.6 33.1 20.9 59.1 32.7 32.4 14.8 128.3 58.6 232.2 34.3 75.5-17.7 133.9-66.2 130.1-74.2-2.4-5-31.7.2-162.2 52.1-2.1-42.3-4.2-84.7-6.2-127-3.6 35.6-7.3 71.2-10.9 106.7-80.7-8.1-161.4-16.4-242.1-24.6Z" fill="#3D3D3D"/><path d="M451.2 745.8c-7.3-8-9.7-19.2-6.1-29 3.7-9.9 13.5-18.4 25.2-18 10.3.4 18.6 7.6 21.6 14.4 2.2 5.2 1.7 10 1.7 10-.3 2.7-1.2 4.8-1.9 6.1-5.1-5.9-12.9-8.6-20.2-6.9-9 2.1-12.9 9.8-13.3 10.5-4.1 8.4-.5 16.2 0 17.1-2.4-1.5-4.7-2.9-7-4.2Z" fill="#4E86C6"/><path d="M957.2 619.2c-5.4 4-11.2 9.4-16.5 16.5-19.7 26.5-17 57.6-15.6 67.7-17.5-3.6-46.9-7.1-81.6.9-20.7 4.8-37.3 12.3-49.5 19.1 1.9 1.2 4.5 2.6 7.8 3.5 18.7 5.1 38.4-10.6 39-9.5.6 1-22 11.6-20.8 20.8.8 6.2 11.9 9.5 23.4 13 9.7 2.9 18.9 5.7 31.2 4.3 16.9-1.9 28.6-10.4 33.8-14.8 5 2.5 12.4 5.8 21.7 8.7 17.1 5.2 40.7 12.4 56.4 2.6 10.2-6.4 13.3-21.4 19.1-51.2 7.4-38.2 11.1-57.3.9-69.4-13.5-16.1-40.6-13.4-49.3-12.2Z" fill="#fff" stroke="#161616" stroke-width="3" stroke-miterlimit="10"/><path d="M921.7 704.4c12.1 4.5 22.1 12.7 29 23.6 1 1.6 3.6.1 2.6-1.5-7.3-11.6-18-20.2-30.8-25-1.8-.6-2.6 2.3-.8 2.9ZM857.4 724.2c-11.9 2-21.5 10-25.8 21.2-.7 1.8 2.2 2.6 2.9.8 3.9-10.2 12.9-17.3 23.7-19.1 1.9-.3 1.1-3.2-.8-2.9Z" fill="#161616"/><path d="M833 747.3c6.2 5.9 14.8 7.9 22.9 5.3 1.8-.6 1-3.5-.8-2.9-7.1 2.3-14.6.7-20-4.5-1.4-1.4-3.5.7-2.1 2.1Z" fill="#161616"/><path d="M871.3 734.1c-4.3 2.6-8.3 5.6-12.1 8.8-2.5 2.2-5.3 4.8-4.7 8.4 1.5 9.5 12.9 7.4 19.1 5 1.8-.7 1-3.6-.8-2.9-2.7 1-5.7 2.3-8.6 2.2-4.7-.2-8.9-4.7-4.9-8.8 3.8-4 8.8-7.2 13.5-10.2 1.7-.9.2-3.5-1.5-2.5Z" fill="#161616"/><path d="M952.2 476.5c4.1 3.2 9.4 7.6 15 13.3 1.6 1.6 5.7 5.8 9.8 11 6.4 8 10.5 15.6 15 24.9 5.8 11.9 11.6 23.8 17.4 41.6 4.9 15 12.4 38.6 13.3 70 .4 12.4-.4 22.8-1.2 30.1-4.1-4.7-8.2-7.8-11.6-9.8-19.1-11.7-42.3-7.5-64.2-3.5-8.2 1.5-15 3.3-19.7 4.6 1.2-11 2.3-22 3.5-33 1-9.2 1.9-18.5 2.9-27.8-1.9-3.3-4.5-8-6.9-13.9-4.7-11.3-14.1-33.5-8.7-58.4 6.4-28.6 28.9-44.8 35.4-49.1Z" fill="#B219CD"/><path d="M955.7 482c10 5.2 16.7 14.2 22.5 23.5 6 9.6 11.4 19.5 16.2 29.7 9.8 20.8 17 42.8 21.7 65.3.4 1.9 3.3 1.1 2.9-.8-4.8-23.4-12.4-46.1-22.8-67.7-5.1-10.6-10.7-20.9-17.1-30.8-5.7-8.8-12.4-17-21.8-21.9-1.8-.8-3.3 1.8-1.6 2.7ZM924.5 583.7c4.6 9.4 9.4 18.6 14.4 27.8.9 1.7 3.5.2 2.6-1.5-5-9.2-9.8-18.4-14.4-27.8-.9-1.8-3.5-.3-2.6 1.5Z" fill="#161616"/><path d="M931.6 600.9c-2.5 19.4-5 38.8-7.4 58.2-.1 1 1.1 1.7 1.9 1.4 17-5.4 34.7-8 52.5-7.4 14.1.5 32.8 1.8 40.7 15.6 1 1.7 3.5.2 2.6-1.5-7.5-13.2-23.9-15.9-37.7-16.8-19.9-1.4-39.9 1.2-58.8 7.2.6.5 1.3 1 1.9 1.4 2.5-19.4 5-38.8 7.4-58.2.2-1.8-2.8-1.8-3.1.1Z" fill="#161616"/><path d="M1015.9 599c3.5 22 9.2 45.3 3.3 67.4-.5 1.9 2.4 2.7 2.9.8 6-22.6.3-46.4-3.3-69-.3-1.9-3.2-1.1-2.9.8Z" fill="#161616"/><path opacity=".32" d="M944.6 472.8c9.1 17 18.2 37.3 25.9 60.6 15.1 46 19.1 87.3 19.4 118.2l-30.6 1.8c3.3 23.7 6.7 47.5 10 71.2-6.4-3.7-16.2-8.4-28.8-11.2-4.1-.9-19.2-3.9-35.3-1.2-33.8 5.7-54.2 33.4-58.8 40 4.6 1.9 10.5 3.7 17.6 4.1 21.8 1.3 37.7-11.3 42.4-15.3 14.9 7.5 27.9 11.1 37.1 12.9 16.1 3.3 34.9 7.1 45.3-2.9.8-.8 2.6-2.7 6.5-12.4 6.1-15.4 9.3-29.8 13.5-55.9.9-5.8 2.2-13.6 3.5-22.9l7.6 7.6c1.2-4.5 2.7-11.2 3.5-19.4 2.1-21.3-2-38.1-5.9-51.8-15.7-55.4-25.1-88.8-56.5-113-6.5-4.8-12.5-8.3-16.4-10.4Z" fill="#3D3D3D"/><path opacity=".29" d="M997.5 541.3c6.7 32.6 7.6 60.3 7.1 80.3-.5 18.6-2.4 32.2-4.4 45.9-5.9 41.3-8.9 61.9-20.3 71.5-21.6 18.2-60.1 4.4-69.3.9 8.7 5.8 40 25.5 70.6 14.6 3.2-1.2 6.7-2.7 10.1-4.9 3.6-6.1 8.4-15.5 11.5-27.8 1.8-7.3 2.3-12.6 3-18.8 1.1-10 3-24.6 6.2-42.9 2.9 2.5 5.9 5 8.8 7.5 1-5.1 2.3-12.9 2.6-22.5.9-23.2-4.2-40.8-10.1-60.9-3.2-11-8.2-25.8-15.8-42.9Z" fill="#3D3D3D"/><path d="M722.6 278.8c1 10.7 2.8 25.7 6.8 43.4 2.6 11.5 4.2 18.8 7.6 27.9 5.1 13.7 14.8 39.9 40.1 57 6.1 4.2 16.2 9.8 30.4 13.1 2.3.2 4.6.5 6.9.7.8 4.2 1.8 10.4 2.8 17.9 2.4 19.3 1.2 25.2 6.2 30.4 6.1 6.3 15.8 5.7 17.9 5.5 16.7-1.1 25.1-17.7 25.5-18.6-2.7-4.9-5.4-10.9-7.6-17.9-4.8-15.5-4.9-29.3-4.1-38.7 7.7-11.1 16.2-19.6 24.8-26.2 3.3-2.5 6.1-5.9 11-7.6 7-2.4 10.6 0 15.8-1.6 8.6-2.7 12.3-13.8 13.9-18.4 6.1-18.2-1.4-36.2-6.2-46.9-4.3-9.8-15.5-34.1-42.8-53.1-28.1-19.6-84.3-41.4-121.5-13.1-6.4 4.9-21 18-27.5 46.2Z" fill="#fff"/><path d="M726.8 320c-6.4-1.1-22.6-4.9-33.1-18.8-16-21.1-7.4-50.6 1.5-66.2 14-24.5 39.5-33 71.5-43.7 19-6.3 37.1-12.3 61.7-11.3 13.6.6 59.7 2.6 87.3 36.9 16.4 20.3 18.2 42.1 21.8 85.1 1.7 19.7.4 30.4-3 40.6-2.5 7.4-10.6 31.1-33.9 40.6-12.2 5-23.5 4-29.7 3 5.6-8.3 11.2-16.5 16.9-24.8 3.2.2 14.6.4 23.3-7.5 11.9-10.9 14-32.6 5.3-38.4-6.4-4.3-19.1-.1-30.1 9.8-1-6.3-2.6-13.2-5.3-20.3-12.6-33.9-40-52.5-53.4-60.2-5.3 6.8-22.1 26.7-51.9 34.6-23.6 6.2-43.2 1.8-51.9-.8l3 41.4Z" fill="#4E86C6"/><path d="M721.8 281.4c4.1 30.9 8.4 63 23.5 90.8 12.4 22.8 32.4 42.3 58.1 48.8 1.9.5 2.7-2.4.8-2.9-25.4-6.5-45-26.1-57-48.8-14.3-27-18.4-58-22.4-87.9-.3-1.9-3.3-1.9-3 0Z" fill="#161616"/><path d="M803.4 421.4c18.1 0 37.1-9.7 51.3-20.1 14.3-10.5 26-24 34.4-39.6.9-1.7-1.7-3.2-2.6-1.5-8.1 15.2-19.4 28.4-33.3 38.5-13.9 10.2-32.3 19.7-49.8 19.7-2 0-2 3 0 3Z" fill="#161616"/><path d="M854.6 398.9c-2 20.2 1.9 40.4 11.1 58.5.9 1.7 3.5.2 2.6-1.5-9-17.7-12.6-37.3-10.7-57 .2-1.9-2.8-1.9-3 0Z" fill="#161616"/><path d="M811.1 420.9c3.3 11.4 6 23 8 34.7 1.3 7.8 1.8 16.6 10.5 19.5 13 4.4 32.2-3.4 37.2-16.3.7-1.8-2.2-2.6-2.9-.8-2.8 7.3-9.8 11.3-17 13.4-6 1.7-15.1 3.5-20.2-1.4-3-2.9-3.4-7.5-4-11.4-.7-4.1-1.4-8.2-2.2-12.3-1.8-8.8-3.9-17.6-6.4-26.2-.6-1.8-3.5-1-3 .8Z" fill="#161616"/><path d="M815.4 433.3c17.8-2.3 29.5-15.9 38.1-30.5 1-1.7-1.6-3.2-2.6-1.5-7.9 13.6-18.9 26.9-35.5 29-1.9.3-1.9 3.3 0 3Z" fill="#161616"/><path d="M814.7 423.1c13.9-1.6 26.4-8.1 35.7-18.6 1.3-1.4-.8-3.6-2.1-2.1-8.7 9.9-20.5 16.2-33.6 17.7-1.8.2-1.9 3.2 0 3Z" fill="#161616"/><path d="M815.2 420.9c11.2-1.6 21.3-6.2 29.9-13.5 1.5-1.3-.7-3.4-2.1-2.1-8.2 7-17.9 11.3-28.6 12.8-1.9.2-1.1 3.1.8 2.8Z" fill="#161616"/><path d="M814.6 423.4c.5 2.4.4 7.2 3.4 8 2.9.8 7.3-2.6 9.6-4 7.9-4.8 14.5-11.3 19.7-18.9 1.1-1.6-1.5-3.1-2.6-1.5-3.7 5.5-8.2 10.4-13.5 14.4-2.5 1.9-5.1 3.5-7.8 5-1.1.6-3.6 2.3-4.7 1.6-.7-.4-1-4.7-1.1-5.4-.5-1.9-3.4-1.1-3 .8Z" fill="#161616"/><path d="M816 426.2c8.6-3.5 16.7-7.9 24.3-13.2 1.6-1.1.1-3.7-1.5-2.6-7.4 5.2-15.2 9.5-23.6 12.9-1.8.7-1 3.6.8 2.9Z" fill="#161616"/><path d="M817.5 429.2c9.6-3.4 18-8.7 25-16.1 1.3-1.4-.8-3.5-2.1-2.1-6.7 6.9-14.6 12.1-23.7 15.3-1.8.7-1 3.6.8 2.9Z" fill="#161616"/><path d="M819.1 427.6c7.1-3.1 13.6-7.3 19.2-12.7 1.4-1.3-.7-3.4-2.1-2.1-5.5 5.2-11.7 9.2-18.6 12.2-1.8.8-.3 3.4 1.5 2.6ZM737.4 357.4c-16.3-5.8-21.7-27.1-20.1-42.5 1.7-16.9 16.9-35.3 35.5-27.4 8.9 3.8 12.2 13.6 14.6 22.3 2.5 9.2 3.6 19.4 1.2 28.8-2.1 8.3-7.2 16.2-15.2 19.8-8 3.6-17.5 1.6-22.9-5.3-1.2-1.5-3.3.6-2.1 2.1 9.1 11.7 26.2 9.4 35.4-.9 11.7-13.1 10.5-33 5.5-48.7-2.3-7.3-5.3-14.9-12-19.1-5.8-3.7-13.2-4.6-19.7-2.9-15.2 4.1-23.1 20.2-23.4 34.9-.3 16.1 6 36 22.6 41.8 1.6.6 2.4-2.3.6-2.9Z" fill="#161616"/><path d="M772 327.5c9.8-5.9 21.7-6.5 31.9-1.4 1.7.9 3.2-1.7 1.5-2.6-11.2-5.6-24.2-5.1-35 1.4-1.5 1 0 3.6 1.6 2.6Z" fill="#161616"/><path d="M819.8 348.8c-11.3-10.9-16-27.8-11.6-43 4.6-15.8 20.4-29.4 37.4-23.8 18.8 6.2 19.8 33.1 14.9 48.9-2.9 9.3-8.7 18.6-18.3 22-9.6 3.4-17.9-1.7-25.6-7.1-1.6-1.1-3.1 1.5-1.5 2.6 6.3 4.5 13.1 9 21.1 8.7 7.6-.3 14.5-4.5 19.2-10.2 10.6-12.8 12.7-32.3 8.3-47.9-4-14.2-15.8-23.4-30.9-20.9-14.4 2.3-25 15.3-28.2 28.9-3.7 15.7 1.3 32.7 12.9 43.9 1.6 1.4 3.7-.8 2.3-2.1ZM746.5 315.9c-1 6.3.1 12.4 3.5 17.8.7 1.1 2.3.9 2.7-.4 2.4-6.9-1-13.7-4.4-19.6-.7-1.3-2.8-.7-2.8.8.1 5.3 1.2 10.5 3.2 15.4.7 1.8 3.6 1 2.9-.8-1.9-4.7-3-9.5-3.1-14.6-.9.3-1.9.5-2.8.8 3.1 5.3 6.3 11.1 4.1 17.3.9-.1 1.8-.2 2.7-.4-3-4.7-4.1-10-3.2-15.5.4-1.9-2.5-2.7-2.8-.8Z" fill="#161616"/><path d="M835 313.1c0-1.3-.1-1.6-.7-2.7-.7-1.3-2.8-.7-2.8.8.1 6.2.6 12.9 5.4 17.3 1 .9 2.4.2 2.6-1.1.8-7.4-1.4-14.3-6-20.1-1-1.2-2.8.1-2.5 1.5 1.2 4.9 2.7 9.7 4.5 14.3.7 1.8 3.6 1 2.9-.8-1.9-4.7-3.4-9.4-4.5-14.3-.8.5-1.7 1-2.5 1.5 4.1 5.2 5.8 11.4 5.1 18 .9-.4 1.7-.7 2.6-1.1-4.3-3.9-4.5-9.8-4.6-15.2-.9.3-1.9.5-2.8.8l.3 1.2c0 1.8 3 1.8 3-.1ZM782 332.8c-2 6-3.7 12.1-4.8 18.3-.6 3.3-2.7 9.5-1.2 12.8 3 6.7 16.3 2.6 20.9.4 1.7-.8.2-3.4-1.5-2.6-3.7 1.8-7.7 2.7-11.8 2.4-2.4-.2-4.3-.6-4.8-3.3-.3-1.5.7-5.4 1-7.1 1.2-6.9 3-13.6 5.2-20.2.5-1.7-2.4-2.5-3-.7ZM797.1 390.5c7.5-1 14-5.8 17.3-12.7.8-1.7-1.8-3.3-2.6-1.5-3 6.3-8.6 10.4-15.5 11.3-1.9.3-1 3.2.8 2.9ZM740.2 307.3c1.9-2.3 5.4-2.7 7.8-.7 1.5 1.3 3.6-.9 2.1-2.1-3.5-3-8.9-2.8-12 .7-1.3 1.4.8 3.5 2.1 2.1ZM826 301.7c3.1-2.7 7.8-2.7 10.9-.1 1.5 1.2 3.6-.9 2.1-2.1-4.4-3.8-10.8-3.7-15.2.1-1.4 1.3.8 3.4 2.2 2.1ZM865.4 315.5c10.8-3.8 21.9-6.1 33.4-6.7 1.9-.1 1.9-3.1 0-3-11.7.6-23.1 2.9-34.2 6.8-1.8.7-1.1 3.6.8 2.9Z" fill="#161616"/><path opacity=".4" d="M880.3 190.9c6 7.7 29.1 39.3 24.8 82.7-2.4 24.2-12.4 42-18.7 51.4 3.6-2.8 6.7-4.7 9-6 6.1-3.4 10-5.5 15-5.2 1.5.1 5.1.4 7.7 2.5 7.6 6.4 5 29.1-8.5 39.7-7.4 5.8-16.1 6.4-20.5 6.3-5.7 8.1-11.5 16.2-17.2 24.4 3.8.6 9.6 1.1 16.3.1 2.9-.4 14.5-2.5 25.5-11.3 10.8-8.7 15.2-19.3 18.1-26.5 8-20 6.4-37.6 3.6-69.3-1.2-14.1-1.9-21.3-4.7-30.8-3-10.3-7.7-25.5-21.1-39.1-9.6-10-20.4-15.6-29.3-18.9Z" fill="#3D3D3D"/><path opacity=".48" d="M783.7 276.4c10-8.9 21.2-20.3 32-34.5 6.7-8.8 12.3-17.3 16.9-25.2-1.7 9-3.4 18-5 27-3.9 5.6-10.4 13.6-20.5 20.9-8.9 6.3-17.3 9.8-23.4 11.8Z" fill="#3D3D3D"/><path opacity=".27" d="M854.8 265c7.6 25.3 8.2 46.5 7.5 60.5-.5 10.4-3.3 64.9-32 83.7-2.8 1.8-9.9 6-9.6 6.6.4.7 13.7-5.2 21-9.2 11.5-6.2 29.2-18.7 45.6-45.1 2.7.3 15.9 1.2 25.4-7.9 11.5-10.9 13.5-32.3 4.4-38.6-6.5-4.5-18.9-.7-29.8 8.3-1.1-4.6-2.5-9.4-4.4-14.5-7.5-19.8-18.8-34.2-28.1-43.8Z" fill="#3D3D3D"/><path opacity=".36" d="M830.7 415c2.6 8 5.2 16 7.8 24.1 3.6 11 7.1 22.1 10.6 33.1 2-.4 6.9-1.8 11.2-6.2 4.3-4.4 5.7-9.2 6.2-11.2-3.9-7.7-8.5-19.4-10.1-34.2-.8-7.7-.6-14.5 0-20.2-8.5 4.9-17.1 9.8-25.7 14.6Z" fill="#3D3D3D"/><path opacity=".43" d="M780.8 336.3c-5 10.7-10 21.3-15 32 8.2-.2 16.3-.3 24.5-.5-4.8-1.5-9.7-3-14.5-4.5 1.6-9 3.3-18 5-27Z" fill="#3D3D3D"/></svg>