<svg version="1.1" xmlns="http://www.w3.org/2000/svg" xmlns:xlink="http://www.w3.org/1999/xlink" x="0px" y="0px"
width="140px" viewBox="0 0 1272.941 257.241" enable-background="new 0 0 1272.941 257.241"
xml:space="preserve">

<path fill="#4D85C5" d="M78.828,24.896H36.744c-11.783,0-17.314,5.291-17.314,17.314v138.516c0,12.024,5.531,17.314,17.314,17.314
h40.641c30.541,0,48.096-23.086,48.096-75.029v-22.364C125.48,48.222,112.014,24.896,78.828,24.896z M91.814,117
c0,44.729-8.418,55.55-25.25,55.55h-14.91V50.387h15.871c19.961,0,24.289,14.669,24.289,52.665V117z"/>
<path fill="#4D85C5" d="M225.516,136.959c14.91,0,16.352-9.138,16.352-20.921c0-34.148-10.34-51.222-40.881-51.222
c-39.92,0-44.729,21.403-44.729,54.588v27.174c0,33.186,4.809,54.588,44.729,54.588c23.809,0,39.92-14.188,39.92-37.755
c0-11.543-6.252-14.429-14.91-14.429c-8.176,0-13.947,2.886-14.428,15.631c-0.24,6.974-5.051,13.467-11.303,13.467
c-12.023,0-13.227-12.264-13.227-27.896v-13.226H225.516z M187.039,105.457c0-9.86,3.127-17.555,12.746-17.555
s12.744,7.695,12.744,17.555v10.821h-25.49V105.457z"/>
<path fill="#4D85C5" d="M324.109,123.011l-18.037-13.707c-4.809-3.607-6.492-8.177-6.492-12.505c0-6.253,4.088-10.101,10.1-10.101
c7.455,0,12.266,4.329,12.746,13.227c0.48,7.214,4.088,11.303,12.023,11.303c11.783,0,15.391-5.771,15.391-14.429
c0-10.581-8.176-31.984-39.438-31.984c-23.568,0-40.16,11.543-40.16,35.11c0,13.707,2.885,21.884,19.719,34.389l22.365,16.593
c8.176,6.252,10.34,9.859,10.34,16.353c0,7.695-3.848,12.024-11.543,12.024c-9.139,0-12.264-5.05-12.746-10.581
c-0.961-12.264-4.568-18.036-15.391-18.036c-6.973,0-13.947,3.607-13.947,14.669c0,15.15,8.898,35.831,40.4,35.831
c24.049,0,42.564-12.745,42.564-38.236C352.004,145.375,342.385,136.718,324.109,123.011z"/>
<path fill="#4D85C5" d="M400.34,64.815c-8.898,0-14.67,5.531-14.67,17.555v101.241c0,12.024,5.771,17.555,14.67,17.555
c8.896,0,14.668-5.531,14.668-17.555V82.371C415.008,70.346,409.236,64.815,400.34,64.815z"/>
<path fill="#4D85C5" d="M400.34,20.808c-9.379,0-16.834,7.455-16.834,16.833c0,9.379,7.455,16.834,16.834,16.834
s16.832-7.455,16.832-16.834C417.172,28.263,409.719,20.808,400.34,20.808z"/>
<path fill="#4D85C5" d="M524.422,64.815c-9.137,0-14.428,5.531-14.428,17.555h-0.48c-4.57-11.303-15.631-17.555-26.934-17.555
c-24.77,0-31.264,24.048-31.264,48.817v33.667c0,26.693,4.811,50.741,31.264,50.741c12.504,0,19.238-2.646,25.971-14.669h0.48
v18.036c0,17.555-2.645,25.731-15.391,25.731c-3.605,0-7.695-2.164-10.1-7.936c-1.924-4.569-6.252-8.657-12.986-8.657
c-8.416,0-14.668,4.81-14.668,12.986c0,17.074,16.592,24.289,38.477,24.289c29.338,0,44.008-12.986,44.008-42.565V82.371
C538.371,70.346,532.6,64.815,524.422,64.815z M509.031,143.452c0,26.212-7.453,31.503-14.428,31.503
c-9.859,0-12.506-7.936-12.506-36.553v-20.681c0-21.162,4.811-28.617,12.986-28.617c5.531,0,13.947,5.29,13.947,31.502V143.452z"
/>
<path fill="#4D85C5" d="M634.801,64.815c-11.303,0-22.605,5.531-27.416,16.833h-0.48c0-11.303-5.771-16.833-14.668-16.833
c-8.898,0-14.67,5.531-14.67,17.555v101.241c0,12.024,5.771,17.555,14.67,17.555c8.896,0,14.668-5.531,14.668-17.555v-69.979
c0-16.353,6.012-23.326,15.391-23.326c6.252,0,11.303,4.088,11.303,13.707v79.599c0,12.024,5.771,17.555,14.67,17.555
c8.896,0,14.668-5.531,14.668-17.555V97.04C662.936,74.916,651.152,64.815,634.801,64.815z"/>
<path fill="none" stroke="#4D85C5" stroke-width="6" stroke-miterlimit="10" d="M807.133,170.103h-47.375
c2.887-10.34,9.139-19.959,22.125-32.946l19.959-19.959c14.428-14.429,21.162-30.541,21.162-46.413
c0-30.781-17.555-46.412-49.539-46.412c-28.377,0-45.209,18.036-45.209,43.767c0,8.176,2.645,17.795,14.668,17.795
c7.455,0,13.949-4.088,14.67-13.707c1.203-14.188,4.809-23.567,17.074-23.567c10.82,0,16.111,8.657,16.111,21.644
c0,12.985-4.088,21.643-20.922,38.477l-11.303,11.302c-26.451,26.453-32.223,51.222-32.223,63.727
c0,9.619,4.568,13.707,14.188,13.707h66.613c10.82,0,17.314-3.126,17.314-13.707S817.953,170.103,807.133,170.103z"/>
<path fill="#4D85C5" d="M955.404,104.649l-23.807-15.631c-15.871-10.581-17.314-17.795-17.314-25.731
c0-10.34,7.215-16.593,17.074-16.593c9.139,0,15.871,4.088,17.314,16.112c1.443,12.265,3.367,18.276,16.352,18.276
c9.139,0,15.873-5.531,15.873-16.353c0-17.795-11.783-43.526-47.855-43.526c-27.414,0-50.982,14.669-50.982,45.21
c0,17.555,5.051,30.781,21.885,42.805l31.021,21.884c11.783,8.417,16.352,13.948,16.352,25.731c0,11.062-6.012,20.2-18.756,20.2
c-12.986,0-18.518-9.619-19.238-21.403c-0.963-15.391-5.771-20.921-15.873-20.921c-13.707,0-16.352,10.34-16.352,21.883
c0,8.417,5.291,45.931,47.615,45.931c37.033,0,54.828-18.757,54.828-48.576C983.541,128.697,972.961,116.192,955.404,104.649z"/>
<path fill="#4D85C5" d="M1099.691,169.578h-49.539v-46.653h44.729c12.023,0,16.834-6.252,16.834-14.429
s-4.811-14.429-16.834-14.429h-44.729V54.148h47.855c12.023,0,16.834-6.252,16.834-14.429s-4.811-14.429-16.834-14.429h-62.766
c-11.783,0-17.314,5.291-17.314,17.314v138.516c0,12.024,5.531,17.314,17.314,17.314h64.449c12.023,0,16.832-6.252,16.832-14.429
S1111.715,169.578,1099.691,169.578z"/>
<path fill="#4D85C5" d="M1199.248,21.203c-26.934,0-52.906,7.455-52.906,70.941v36.553c0,65.169,23.086,73.827,52.906,73.827
c29.818,0,52.904-8.657,52.904-73.827V92.144C1252.152,28.658,1226.182,21.203,1199.248,21.203z M1218.486,128.697
c0,42.324-6.254,48.336-19.238,48.336c-12.986,0-19.238-6.012-19.238-48.336V92.144c0-37.274,6.492-45.451,19.238-45.451
c12.744,0,19.238,8.177,19.238,45.451V128.697z"/>
</svg>
